<svg width="63" height="191" viewBox="0 0 63 191" fill="none" xmlns="http://www.w3.org/2000/svg">
<path d="M36 39.5H41V28.5651L32.7292 35.7182L36 39.5ZM17.5 55.5L20.6235 59.4043L20.6983 59.3445L20.7708 59.2818L17.5 55.5ZM14.5 56.75L13.7929 51.8002L13.7353 51.8085L13.678 51.818L14.5 56.75ZM12 56L8.1589 59.2009L8.30409 59.3752L8.46446 59.5355L12 56ZM0.750003 42.5L-3.25 45.5L-3.17312 45.6025L-3.0911 45.7009L0.750003 42.5ZM1.51992e-06 40.25L-4.93197 39.428L-5 39.8362V40.25H1.51992e-06ZM1.5 37.5L-1.8884 33.8232L-1.96341 33.8923L-2.03553 33.9645L1.5 37.5ZM39.75 2.24999L43.1384 5.92677L43.2134 5.85766L43.2855 5.78555L39.75 2.24999ZM41.5 1.24999L39.6431 -3.39241L39.643 -3.39239L41.5 1.24999ZM61.75 1.74999L57.75 4.75L58.1786 5.32143L58.75 5.75001L61.75 1.74999ZM39.5 185.75C39.0158 185.75 39.5842 185.63 40.2773 186.274C41.0402 186.982 41 187.714 41 187.5H31C31 189.453 31.5432 191.81 33.4727 193.601C35.3324 195.328 37.6509 195.75 39.5 195.75V185.75ZM41 187.5V39.5H31V187.5H41ZM32.7292 35.7182L14.2292 51.7182L20.7708 59.2818L39.2708 43.2818L32.7292 35.7182ZM14.3765 51.5956C14.312 51.6473 14.17 51.7464 13.7929 51.8002L15.2071 61.6997C17.1633 61.4203 19.0214 60.686 20.6235 59.4043L14.3765 51.5956ZM13.678 51.818C13.8076 51.7964 14.1345 51.7702 14.5617 51.8984C15.0029 52.0307 15.334 52.2629 15.5355 52.4645L8.46446 59.5355C10.3701 61.4412 12.8698 62.0907 15.322 61.682L13.678 51.818ZM15.8411 52.7991L4.59111 39.2991L-3.0911 45.7009L8.1589 59.2009L15.8411 52.7991ZM4.75 39.5C4.8049 39.5732 4.87697 39.6945 4.93092 39.8563C4.98487 40.0182 5 40.1585 5 40.25H-5C-5 42.1652 -4.39911 43.9678 -3.25 45.5L4.75 39.5ZM4.93197 41.072C4.9271 41.1012 4.91948 41.1309 4.90998 41.1582C4.90056 41.1853 4.89211 41.2019 4.88948 41.2068C4.88357 41.2176 4.91385 41.1572 5.03553 41.0355L-2.03553 33.9645C-3.48212 35.411 -4.56731 37.2401 -4.93197 39.428L4.93197 41.072ZM4.88841 41.1768L43.1384 5.92677L36.3616 -1.42679L-1.8884 33.8232L4.88841 41.1768ZM43.2855 5.78555C43.2172 5.85385 43.1565 5.90819 43.1074 5.94956C43.0582 5.99101 43.0174 6.02213 42.9877 6.04368C42.9304 6.08537 42.9029 6.09993 42.9182 6.0912C42.9324 6.08309 42.9744 6.06005 43.0509 6.02407C43.1267 5.98841 43.2275 5.94415 43.357 5.89236L39.643 -3.39239C38.6465 -2.99379 37.2858 -2.35682 36.2145 -1.28557L43.2855 5.78555ZM43.3569 5.89238C43.4862 5.84066 43.5917 5.80239 43.6749 5.77466C43.7586 5.74676 43.8119 5.73214 43.8377 5.72571C43.8642 5.71906 43.8503 5.72393 43.8009 5.73099C43.7526 5.73789 43.6489 5.74999 43.5 5.74999V-4.25001C42.0453 -4.25001 40.6732 -3.80446 39.6431 -3.39241L43.3569 5.89238ZM43.5 5.74999H56.75V-4.25001H43.5V5.74999ZM56.75 5.74999C57.3647 5.74999 57.8736 5.76822 58.2869 5.79883C58.7061 5.82989 58.9825 5.87052 59.1444 5.9029C59.3245 5.93891 59.2611 5.94466 59.061 5.85229C58.8836 5.77045 58.2909 5.47119 57.75 4.75L65.75 -1.25001C64.3015 -3.18128 62.0841 -3.70722 61.1056 -3.90291C59.8071 -4.16261 58.3093 -4.25001 56.75 -4.25001V5.74999ZM58.75 5.75001C58.3037 5.4153 58.02 5.0648 57.8554 4.82371C57.6906 4.58242 57.604 4.39075 57.5674 4.30237C57.5019 4.14398 57.5262 4.14471 57.5739 4.41919C57.6688 4.96471 57.75 5.94873 57.75 7.5H67.75C67.75 5.71792 67.6645 4.07694 67.4261 2.70579C67.3071 2.02194 67.1231 1.24142 66.8076 0.478862C66.5176 -0.222069 65.9323 -1.36331 64.75 -2.25002L58.75 5.75001ZM57.75 7.5V187.5H67.75V7.5H57.75ZM57.75 187.5C57.75 187.813 57.6752 187.129 58.402 186.402C59.1287 185.675 59.8126 185.75 59.5 185.75V195.75C61.3541 195.75 63.663 195.283 65.473 193.473C67.2831 191.663 67.75 189.354 67.75 187.5H57.75ZM59.5 185.75H39.5V195.75H59.5V185.75Z" fill="#F9F4F9"/>
</svg>
