<svg width="115" height="193" viewBox="0 0 115 193" fill="none" xmlns="http://www.w3.org/2000/svg">
<path d="M1.25 171.5L-2.98999 168.85L-3.1159 169.051L-3.22213 169.264L1.25 171.5ZM4 167.5L0.179851 164.274L0.0866638 164.384L1.98185e-06 164.5L4 167.5ZM42 122.5L45.8202 125.726L45.8259 125.719L45.8316 125.712L42 122.5ZM72.75 81.25L68.474 78.6585L68.474 78.6585L72.75 81.25ZM75.25 34.5L71.5987 37.9158L71.6276 37.9467L71.657 37.9771L75.25 34.5ZM37.25 29.75L38.6403 34.5528L38.6805 34.5412L38.7204 34.5289L37.25 29.75ZM16.5 39L13.9986 34.6707L13.9235 34.714L13.85 34.76L16.5 39ZM12.5 40.25L11.8798 45.2114L12.1887 45.25H12.5V40.25ZM10 37.75L5.08273 38.6558L5.09927 38.7456L5.11907 38.8346L10 37.75ZM6.5 18.75L11.4173 17.8442L11.3271 17.3549L11.1424 16.893L6.5 18.75ZM10 13.5L7.67127 9.0754L7.54747 9.14055L7.42751 9.21253L10 13.5ZM31.75 4.49999L30.198 -0.253043L30.198 -0.253041L31.75 4.49999ZM77.75 3.99999L76.0983 8.71928L76.1682 8.74375L76.2388 8.76614L77.75 3.99999ZM95.25 14L91.8429 17.6595L91.9081 17.7201L91.9754 17.7784L95.25 14ZM106.25 76.5L110.835 78.4936L110.843 78.4757L110.851 78.4578L106.25 76.5ZM93.75 99.25L97.8811 102.067L97.8958 102.045L97.9103 102.023L93.75 99.25ZM77.75 120.5L81.5597 123.738L81.5794 123.715L81.5988 123.692L77.75 120.5ZM62.25 138.75L58.4375 135.515L58.4053 135.553L58.3738 135.592L62.25 138.75ZM50.5 153L46.6589 149.799L46.6535 149.806L46.648 149.812L50.5 153ZM38.25 167.25L34.5203 163.92L27.0827 172.25H38.25V167.25ZM5 188C4.47753 188 4.17291 187.954 4.03368 187.922C3.89405 187.89 4.01927 187.896 4.26092 188.061C4.53529 188.249 4.83651 188.561 5.04183 188.982C5.23585 189.38 5.25 189.682 5.25 189.75H-4.75C-4.75 192.235 -3.73289 194.708 -1.38592 196.314C0.620012 197.687 3.00216 198 5 198V188ZM5.25 189.75V175.5H-4.75V189.75H5.25ZM5.25 175.5C5.25 175.03 5.36119 174.458 5.72214 173.736L-3.22213 169.264C-4.19452 171.209 -4.75 173.303 -4.75 175.5H5.25ZM5.48999 174.15C6.24401 172.944 7.07989 171.727 8 170.5L1.98185e-06 164.5C-1.07989 165.94 -2.07734 167.39 -2.98999 168.85L5.48999 174.15ZM7.82015 170.726L45.8202 125.726L38.1799 119.274L0.179851 164.274L7.82015 170.726ZM45.8316 125.712C59.7353 109.128 70.1688 95.1559 77.026 83.8415L68.474 78.6585C61.9979 89.3441 51.9314 102.872 38.1684 119.288L45.8316 125.712ZM77.026 83.8415C83.828 72.6182 87.75 62.6488 87.75 54.25H77.75C77.75 59.8512 75.0054 67.8818 68.474 78.6585L77.026 83.8415ZM87.75 54.25C87.75 45.1116 84.8505 37.2306 78.843 31.0229L71.657 37.9771C75.6495 42.1027 77.75 47.3884 77.75 54.25H87.75ZM78.9014 31.0842C73.1088 24.8921 65.7802 21.75 57.25 21.75V31.75C63.0531 31.75 67.7246 33.7745 71.5987 37.9158L78.9014 31.0842ZM57.25 21.75C49.9207 21.75 42.7583 22.8238 35.7796 24.9711L38.7204 34.5289C44.7417 32.6762 50.9127 31.75 57.25 31.75V21.75ZM35.8597 24.9472C29.039 26.9216 21.7461 30.1944 13.9986 34.6707L19.0014 43.3293C26.2539 39.139 32.7943 36.2451 38.6403 34.5528L35.8597 24.9472ZM13.85 34.76C13.1669 35.1869 12.7394 35.25 12.5 35.25V45.25C14.9273 45.25 17.1664 44.4797 19.15 43.24L13.85 34.76ZM13.1202 35.2886C13.3945 35.3229 13.9327 35.4866 14.4105 35.9645C14.8423 36.3962 14.9029 36.7643 14.8809 36.6653L5.11907 38.8346C5.4304 40.2356 6.0744 41.7705 7.33947 43.0355C8.65066 44.3467 10.2721 45.0104 11.8798 45.2114L13.1202 35.2886ZM14.9173 36.8442L11.4173 17.8442L1.58273 19.6558L5.08273 38.6558L14.9173 36.8442ZM11.1424 16.893C11.2524 17.1681 11.3317 17.5572 11.2877 17.9975C11.2451 18.4236 11.1063 18.7077 11.0375 18.8225L2.46254 13.6775C1.23556 15.7225 0.890561 18.1893 1.85762 20.6069L11.1424 16.893ZM11.0375 18.8225C10.9079 19.0384 10.8693 19.0065 11.1672 18.7544C11.4433 18.5208 11.8924 18.1955 12.5725 17.7874L7.42751 9.21253C5.62786 10.2923 3.62954 11.7325 2.46254 13.6775L11.0375 18.8225ZM12.3287 17.9246C18.3693 14.7453 25.3518 11.849 33.302 9.25301L30.198 -0.253041C21.8149 2.48431 14.2973 5.58799 7.67127 9.0754L12.3287 17.9246ZM33.302 9.25301C41.0158 6.73423 48.4922 5.49999 55.75 5.49999V-4.50001C47.3411 -4.50001 38.8176 -3.06759 30.198 -0.253043L33.302 9.25301ZM55.75 5.49999C63.2612 5.49999 70.0278 6.59463 76.0983 8.71928L79.4018 -0.7193C72.1389 -3.26132 64.2388 -4.50001 55.75 -4.50001V5.49999ZM76.2388 8.76614C82.4273 10.7284 87.5969 13.7063 91.8429 17.6595L98.6571 10.3405C93.2364 5.29366 86.7394 1.60496 79.2612 -0.766161L76.2388 8.76614ZM91.9754 17.7784C96.3471 21.5673 99.8341 26.4223 102.398 32.4557L111.602 28.5443C108.499 21.2444 104.153 15.0994 98.5247 10.2215L91.9754 17.7784ZM102.398 32.4557C104.923 38.3949 106.25 45.3759 106.25 53.5H116.25C116.25 44.2907 114.744 35.9384 111.602 28.5443L102.398 32.4557ZM106.25 53.5C106.25 60.2422 104.755 67.2447 101.649 74.5422L110.851 78.4578C114.412 70.0887 116.25 61.7578 116.25 53.5H106.25ZM101.665 74.5064C98.4584 81.8808 94.4379 89.2043 89.5898 96.4765L97.9103 102.023C103.062 94.2957 107.375 86.4526 110.835 78.4936L101.665 74.5064ZM89.6189 96.4333C84.7071 103.637 79.468 110.595 73.9012 117.308L81.5988 123.692C87.3654 116.738 92.7929 109.529 97.8811 102.067L89.6189 96.4333ZM73.9403 117.262C68.2729 123.929 63.1052 130.014 58.4375 135.515L66.0625 141.985C70.7281 136.486 75.8938 130.404 81.5597 123.738L73.9403 117.262ZM58.3738 135.592C54.7201 140.076 50.8152 144.812 46.6589 149.799L54.3411 156.201C58.5182 151.188 62.4466 146.424 66.1262 141.908L58.3738 135.592ZM46.648 149.812C42.6878 154.597 38.6452 159.3 34.5203 163.92L41.9797 170.58C46.1881 165.867 50.3122 161.069 54.352 156.188L46.648 149.812ZM38.25 172.25H111.5V162.25H38.25V172.25ZM111.5 172.25C111.619 172.25 111.503 172.268 111.251 172.172C110.97 172.065 110.639 171.859 110.362 171.543C109.829 170.934 110 170.536 110 171.25H120C120 169.298 119.587 166.9 117.888 164.957C116.077 162.888 113.624 162.25 111.5 162.25V172.25ZM110 171.25V188.75H120V171.25H110ZM110 188.75C110 189.132 109.959 189.288 109.96 189.286C109.963 189.272 110.029 189.046 110.265 188.759C110.519 188.451 110.844 188.226 111.155 188.1C111.436 187.986 111.587 188 111.5 188V198C113.721 198 116.203 197.279 117.985 195.116C119.613 193.139 120 190.727 120 188.75H110ZM111.5 188H5V198H111.5V188Z" fill="#DAC8C1"/>
</svg>
