<svg width="118" height="195" viewBox="0 0 118 195" fill="none" xmlns="http://www.w3.org/2000/svg">
<path d="M97.5 179.75L94.3394 175.876L94.3394 175.876L97.5 179.75ZM74.5 191.25L75.777 196.084L75.8076 196.076L75.8382 196.068L74.5 191.25ZM25 192.75L25.8944 187.831L25.849 187.822L25.8034 187.815L25 192.75ZM5 187.75L6.65743 183.033L6.54792 182.994L6.43674 182.961L5 187.75ZM1.5 186L-2.40434 189.123L-2.23135 189.34L-2.03553 189.536L1.5 186ZM0.750001 182.5L-4.21438 181.904L-4.217 181.926L-4.21942 181.948L0.750001 182.5ZM3 163.75L7.96439 164.346L7.967 164.324L7.96942 164.302L3 163.75ZM4.5 160.75L7.07248 165.037L7.07248 165.037L4.5 160.75ZM9.25 161.25L7.56832 165.959L7.67316 165.996L7.77957 166.029L9.25 161.25ZM22.25 165.25L20.7796 170.029L20.8644 170.055L20.9501 170.078L22.25 165.25ZM35.5 167.5L35.974 162.523L35.9218 162.518L35.8694 162.514L35.5 167.5ZM46.25 168.25L46.477 163.255L46.477 163.255L46.25 168.25ZM57 168L57.474 172.977L57.575 172.968L57.6756 172.954L57 168ZM67.25 165.75L68.7557 170.518L68.8291 170.495L68.9018 170.469L67.25 165.75ZM76.5 161L73.6674 156.88L73.6419 156.897L73.6166 156.915L76.5 161ZM85.75 125L81.1982 127.069L81.256 127.196L81.3208 127.32L85.75 125ZM77.75 115.5L74.6928 119.456L74.7503 119.501L74.8091 119.544L77.75 115.5ZM63.5 109L62.0892 113.797L62.1716 113.821L62.2548 113.842L63.5 109ZM27.75 106L23.5898 108.774L24.1445 109.606L24.9765 110.16L27.75 106ZM27.75 82L24.9765 77.8397L24.5646 78.1144L24.2145 78.4645L27.75 82ZM55.75 80L56.7001 84.9089L56.776 84.8942L56.8513 84.8772L55.75 80ZM70.75 74.5L68.4529 70.0589L68.4529 70.0589L70.75 74.5ZM83 65L79.3076 61.6286L79.2667 61.6734L79.227 61.7191L83 65ZM85 39.75L89.1265 36.9266L89.1265 36.9266L85 39.75ZM76.5 32L73.9275 36.2875L73.9731 36.3148L74.0193 36.3412L76.5 32ZM65.5 27.75L64.2873 32.6007L64.3833 32.6247L64.4802 32.6449L65.5 27.75ZM46 27L45.2202 22.0612L45.1991 22.0645L45.178 22.068L46 27ZM36.5 29L37.5301 33.8927L37.6218 33.8734L37.7127 33.8507L36.5 29ZM26.75 31.5L25.3133 26.7109L25.3133 26.7109L26.75 31.5ZM17.75 34.5L15.9944 29.8183L15.9101 29.85L15.8269 29.8846L17.75 34.5ZM13.5 35.25L10.9275 39.5374L11.271 39.7436L11.643 39.8924L13.5 35.25ZM11.75 32.25L6.78757 32.8618L6.81696 33.1002L6.86907 33.3346L11.75 32.25ZM9.5 14L14.4624 13.3882L14.4013 12.8926L14.2434 12.4189L9.5 14ZM13.25 8.99999L11.5413 4.30102L11.5413 4.30102L13.25 8.99999ZM34.75 2.74999L33.7024 -2.13902L33.7024 -2.13902L34.75 2.74999ZM77.75 3.24999L76.5108 8.094L76.5241 8.09739L76.5373 8.1007L77.75 3.24999ZM97 11.75L94.141 15.852L94.1696 15.8719L94.1985 15.8914L97 11.75ZM110.75 26.75L106.402 29.218L106.402 29.218L110.75 26.75ZM113.5 62.25L108.811 60.5134L108.783 60.5907L108.757 60.6688L113.5 62.25ZM96.75 85.75L99.8535 89.6702L99.8535 89.6702L96.75 85.75ZM83.75 93.5L81.7804 88.9043L71.1905 93.4428L81.7386 98.0776L83.75 93.5ZM108.75 112L104.761 115.014L104.777 115.036L104.794 115.057L108.75 112ZM112 161L107.488 158.846L107.467 158.888L107.448 158.931L112 161ZM94.3394 175.876C88.6131 180.547 81.5904 184.091 73.1618 186.432L75.8382 196.068C85.4096 193.409 93.7203 189.286 100.661 183.624L94.3394 175.876ZM73.223 186.416C64.8299 188.633 56.0106 189.75 46.75 189.75V199.75C56.8227 199.75 66.5034 198.534 75.777 196.084L73.223 186.416ZM46.75 189.75C39.895 189.75 32.9444 189.112 25.8944 187.831L24.1056 197.669C31.7223 199.054 39.2716 199.75 46.75 199.75V189.75ZM25.8034 187.815C18.8957 186.69 12.5178 185.092 6.65743 183.033L3.34257 192.467C9.81554 194.742 16.7709 196.476 24.1966 197.685L25.8034 187.815ZM6.43674 182.961C5.79364 182.768 5.36893 182.594 5.11107 182.465C4.83805 182.329 4.87424 182.303 5.03554 182.464L-2.03553 189.536C-0.474457 191.097 1.66904 191.971 3.56326 192.539L6.43674 182.961ZM5.40434 182.877C5.50083 182.997 5.57296 183.119 5.62345 183.229C5.67307 183.337 5.69397 183.417 5.70151 183.452C5.7144 183.512 5.68045 183.403 5.71942 183.052L-4.21942 181.948C-4.4712 184.214 -4.19158 186.889 -2.40434 189.123L5.40434 182.877ZM5.71439 183.096L7.96439 164.346L-1.96438 163.154L-4.21438 181.904L5.71439 183.096ZM7.96942 164.302C8.00895 163.946 8.06034 163.935 7.97214 164.111C7.86233 164.331 7.58825 164.728 7.07248 165.037L1.92753 156.463C-0.850873 158.13 -1.72752 161.021 -1.96942 163.198L7.96942 164.302ZM7.07248 165.037C6.5751 165.336 6.15025 165.425 5.94881 165.453C5.75097 165.48 5.68015 165.461 5.78908 165.473C5.89033 165.483 6.08934 165.514 6.40371 165.595C6.71401 165.674 7.09985 165.791 7.56832 165.959L10.9317 156.541C9.57325 156.056 8.17766 155.669 6.83592 155.527C5.59693 155.397 3.70175 155.398 1.92752 156.463L7.07248 165.037ZM7.77957 166.029C12.1129 167.362 16.4462 168.696 20.7796 170.029L23.7204 160.471C19.3871 159.138 15.0538 157.804 10.7204 156.471L7.77957 166.029ZM20.9501 170.078C25.5896 171.327 30.3179 172.13 35.1306 172.486L35.8694 162.514C31.6821 162.203 27.577 161.506 23.5499 160.422L20.9501 170.078ZM35.026 172.477C38.6116 172.819 42.2774 173.075 46.023 173.245L46.477 163.255C42.8893 163.092 39.3884 162.848 35.974 162.523L35.026 172.477ZM46.023 173.245C49.9132 173.422 53.7311 173.334 57.474 172.977L56.526 163.023C53.2689 163.333 49.9201 163.412 46.477 163.255L46.023 173.245ZM57.6756 172.954C61.5923 172.42 65.2894 171.613 68.7557 170.518L65.7443 160.982C62.8773 161.887 59.7411 162.58 56.3244 163.046L57.6756 172.954ZM68.9018 170.469C72.665 169.152 76.164 167.357 79.3834 165.085L73.6166 156.915C71.1693 158.643 68.5017 160.015 65.5983 161.031L68.9018 170.469ZM79.3326 165.12C88.9094 158.536 93.5 148.527 93.5 136H83.5C83.5 145.806 80.0906 152.464 73.6674 156.88L79.3326 165.12ZM93.5 136C93.5 131.333 92.3755 126.873 90.1792 122.68L81.3208 127.32C82.7912 130.127 83.5 133 83.5 136H93.5ZM90.3018 122.931C88.2346 118.383 84.9666 114.566 80.6909 111.456L74.8091 119.544C77.8667 121.767 79.9321 124.284 81.1982 127.069L90.3018 122.931ZM80.8072 111.544C76.4679 108.19 71.048 105.778 64.7452 104.158L62.2548 113.842C67.6186 115.222 71.6988 117.143 74.6928 119.456L80.8072 111.544ZM64.9108 104.203C58.6565 102.364 51.3206 101.5 43 101.5V111.5C50.6794 111.5 57.0102 112.303 62.0892 113.797L64.9108 104.203ZM43 101.5H30.5V111.5H43V101.5ZM30.5 101.5C30.2685 101.5 30.0862 101.493 29.9475 101.482C29.8071 101.472 29.7308 101.46 29.7069 101.456C29.6799 101.451 29.7424 101.46 29.8672 101.504C29.9887 101.547 30.2298 101.644 30.5235 101.84L24.9765 110.16C26.02 110.856 27.1192 111.149 27.9181 111.294C28.7675 111.449 29.6499 111.5 30.5 111.5V101.5ZM31.9102 103.226C32.106 103.52 32.2033 103.761 32.2462 103.883C32.2902 104.008 32.2993 104.07 32.2944 104.043C32.29 104.019 32.278 103.943 32.2676 103.803C32.2573 103.664 32.25 103.482 32.25 103.25H22.25C22.25 104.1 22.3012 104.983 22.4557 105.832C22.6009 106.631 22.8941 107.73 23.5898 108.774L31.9102 103.226ZM32.25 103.25V84.75H22.25V103.25H32.25ZM32.25 84.75C32.25 84.464 32.2581 84.2428 32.2694 84.0784C32.275 83.9973 32.281 83.9361 32.2861 83.8928C32.2912 83.849 32.2947 83.8299 32.2944 83.8319C32.2941 83.8332 32.2881 83.8666 32.2721 83.9256C32.2565 83.9834 32.2263 84.0846 32.1736 84.2163C32.0841 84.4402 31.8397 84.9814 31.2855 85.5355L24.2145 78.4645C22.9076 79.7714 22.5727 81.3992 22.4557 82.0431C22.2964 82.9191 22.25 83.8575 22.25 84.75H32.25ZM30.5235 86.1602C30.2298 86.356 29.9887 86.4533 29.8672 86.4962C29.7424 86.5402 29.6799 86.5493 29.7069 86.5443C29.7308 86.54 29.8071 86.528 29.9475 86.5176C30.0862 86.5073 30.2685 86.5 30.5 86.5V76.5C29.6499 76.5 28.7675 76.5512 27.9181 76.7056C27.1192 76.8509 26.02 77.1441 24.9765 77.8397L30.5235 86.1602ZM30.5 86.5H42.5V76.5H30.5V86.5ZM42.5 86.5C46.5901 86.5 51.3431 85.9457 56.7001 84.9089L54.7999 75.0911C49.8236 76.0543 45.7433 76.5 42.5 76.5V86.5ZM56.8513 84.8772C62.4448 83.6142 67.8458 81.6314 73.0471 78.9411L68.4529 70.0589C63.9875 72.3686 59.3885 74.0525 54.6487 75.1228L56.8513 84.8772ZM73.0471 78.9411C78.401 76.1718 82.9966 72.6237 86.773 68.2809L79.227 61.7191C76.3367 65.0429 72.7657 67.8281 68.4529 70.0589L73.0471 78.9411ZM86.6924 68.3713C91.0869 63.5583 93.25 57.6662 93.25 51H83.25C83.25 55.3338 81.9131 58.775 79.3076 61.6286L86.6924 68.3713ZM93.25 51C93.25 45.7941 91.934 41.0298 89.1265 36.9266L80.8735 42.5734C82.3993 44.8035 83.25 47.5392 83.25 51H93.25ZM89.1265 36.9266C86.5114 33.1045 83.1029 30.0143 78.9807 27.6588L74.0193 36.3412C76.8971 37.9857 79.1553 40.0622 80.8735 42.5734L89.1265 36.9266ZM79.0725 27.7125C75.2351 25.4101 71.0395 23.7967 66.5198 22.8551L64.4802 32.6449C67.9605 33.37 71.0982 34.5899 73.9275 36.2875L79.0725 27.7125ZM66.7127 22.8993C62.3843 21.8172 58.2236 21.25 54.25 21.25V31.25C57.2764 31.25 60.6157 31.6828 64.2873 32.6007L66.7127 22.8993ZM54.25 21.25C51.5794 21.25 48.5567 21.5344 45.2202 22.0612L46.7798 31.9388C49.7766 31.4656 52.2539 31.25 54.25 31.25V21.25ZM45.178 22.068C42.0312 22.5925 38.7335 23.2877 35.2873 24.1493L37.7127 33.8507C40.9331 33.0456 43.9688 32.4075 46.822 31.932L45.178 22.068ZM35.4699 24.1072C32.1565 24.8048 28.7707 25.6736 25.3133 26.7109L28.1867 36.2891C31.396 35.3264 34.5101 34.5285 37.5301 33.8927L35.4699 24.1072ZM25.3133 26.7109C21.895 27.7363 18.7861 28.7715 15.9944 29.8183L19.5056 39.1816C22.0473 38.2285 24.9383 37.2637 28.1867 36.2891L25.3133 26.7109ZM15.8269 29.8846C15.4351 30.0479 15.1106 30.1662 14.8481 30.2495C14.5827 30.3336 14.4103 30.3724 14.3186 30.3886C14.2214 30.4057 14.2663 30.3884 14.4194 30.394C14.572 30.3997 14.9165 30.4314 15.357 30.6076L11.643 39.8924C13.2992 40.5548 14.9325 40.4348 16.0564 40.2364C17.2589 40.0242 18.4862 39.6099 19.6731 39.1154L15.8269 29.8846ZM16.0725 30.9625C16.5039 31.2214 16.705 31.5176 16.7564 31.6056C16.7944 31.6708 16.7199 31.5655 16.6309 31.1653L6.86907 33.3346C7.33136 35.415 8.38606 38.0126 10.9275 39.5374L16.0725 30.9625ZM16.7124 31.6382L14.4624 13.3882L4.53757 14.6118L6.78757 32.8618L16.7124 31.6382ZM14.2434 12.4189C14.2634 12.4787 14.3212 12.6938 14.292 13.0152C14.2617 13.3482 14.1526 13.6305 14.0375 13.8225L5.46254 8.67751C4.1425 10.8776 4.00589 13.329 4.75658 15.5811L14.2434 12.4189ZM14.0375 13.8225C13.8923 14.0645 13.755 14.2074 13.6937 14.2656C13.6333 14.323 13.6243 14.3195 13.7038 14.2684C13.8773 14.1569 14.262 13.9523 14.9587 13.699L11.5413 4.30102C9.54491 5.02697 6.91038 6.26444 5.46254 8.67751L14.0375 13.8225ZM14.9587 13.699C22.0954 11.1038 29.0411 9.08684 35.7976 7.639L33.7024 -2.13902C26.4589 -0.586854 19.0713 1.56283 11.5413 4.30102L14.9587 13.699ZM35.7976 7.639C42.4612 6.21111 49.1101 5.49999 55.75 5.49999V-4.50001C48.3899 -4.50001 41.0389 -3.71113 33.7024 -2.13902L35.7976 7.639ZM55.75 5.49999C62.8379 5.49999 69.7547 6.36569 76.5108 8.094L78.9892 -1.59403C71.412 -3.53238 63.6621 -4.50001 55.75 -4.50001V5.49999ZM76.5373 8.1007C83.3556 9.80527 89.1992 12.4077 94.141 15.852L99.859 7.648C93.8008 3.42566 86.8111 0.361379 78.9627 -1.60073L76.5373 8.1007ZM94.1985 15.8914C99.204 19.2775 103.267 23.6956 106.402 29.218L115.098 24.282C111.233 17.471 106.129 11.8891 99.8016 7.60858L94.1985 15.8914ZM106.402 29.218C109.397 34.4956 111 40.9433 111 48.75H121C121 39.5567 119.103 31.3377 115.098 24.282L106.402 29.218ZM111 48.75C111 52.6189 110.286 56.5321 108.811 60.5134L118.189 63.9866C120.048 58.9679 121 53.8811 121 48.75H111ZM108.757 60.6688C107.417 64.6868 105.479 68.4977 102.92 72.1099L111.08 77.8901C114.188 73.5023 116.583 68.8131 118.243 63.8311L108.757 60.6688ZM102.92 72.1099C100.372 75.7062 97.2889 78.9462 93.6465 81.8298L99.8535 89.6702C104.211 86.2205 107.961 82.2938 111.08 77.8901L102.92 72.1099ZM93.6465 81.8298C89.9913 84.7235 86.0389 87.0792 81.7804 88.9043L85.7196 98.0957C90.7944 95.9208 95.5088 93.1098 99.8535 89.6702L93.6465 81.8298ZM81.7386 98.0776C92.1694 102.661 99.7329 108.36 104.761 115.014L112.739 108.986C106.434 100.64 97.3306 94.0059 85.7614 88.9224L81.7386 98.0776ZM104.794 115.057C109.792 121.525 112.25 128.703 112.25 136.75H122.25C122.25 126.464 119.042 117.141 112.706 108.943L104.794 115.057ZM112.25 136.75C112.25 144.904 110.639 152.243 107.488 158.846L116.512 163.154C120.361 155.091 122.25 146.263 122.25 136.75H112.25ZM107.448 158.931C104.438 165.553 100.085 171.188 94.3394 175.876L100.661 183.624C107.581 177.978 112.895 171.114 116.552 163.069L107.448 158.931Z" fill="#99B3CB"/>
</svg>
