<svg width="245" height="119" viewBox="0 0 245 119" fill="none" xmlns="http://www.w3.org/2000/svg">
<path d="M41.6698 30.0336L36.3671 43.654L44.2176 45.7941L42.6684 51.6765L34.1319 49.3494L29.0664 62.3793L22.3592 60.5509L27.4247 47.5209L18.6595 45.1314L13.594 58.1614L6.88679 56.3329L11.9523 43.303L4.02554 41.1421L5.57478 35.2597L14.1875 37.6076L19.4902 23.9872L11.2585 21.7432L12.7877 15.9372L21.7052 18.3682L27.0079 4.74789L33.7152 6.57635L28.4125 20.1967L37.1776 22.5862L42.4803 8.96582L49.1875 10.7943L43.8849 24.4146L51.4305 26.4716L49.9014 32.2776L41.6698 30.0336ZM34.9625 28.2052L26.1974 25.8157L20.8947 39.436L29.6599 41.8255L34.9625 28.2052ZM90.4963 69.8733L88.2228 78.5059L58.9548 70.5272L72.9785 17.2799L100.722 24.8431L98.529 33.1701L80.3127 28.2042L77.0331 40.6566L91.5147 44.6044L89.382 52.7023L74.9004 48.7545L70.7557 64.4918L90.4963 69.8733ZM118.859 87.7584C116.496 87.1143 114.335 86.2247 112.373 85.0896C110.438 83.9615 108.799 82.737 107.459 81.4163C106.119 80.0957 105.118 78.8268 104.459 77.6098L110.458 70.648C110.842 71.5713 111.516 72.6286 112.482 73.8199C113.448 75.0112 114.613 76.1202 115.976 77.147C117.365 78.1806 118.822 78.9052 120.346 79.3208C122.353 79.8679 124.174 79.7775 125.809 79.0496C127.476 78.3032 128.575 76.9241 129.105 74.9123C129.447 73.6136 129.424 72.4066 129.037 71.2912C128.682 70.1573 128.081 69.0792 127.234 68.0567C126.419 67.0157 125.115 65.555 123.323 63.6745C120.871 61.0955 118.984 58.9569 117.661 57.259C116.345 55.5355 115.345 53.489 114.662 51.1193C114.011 48.7312 114.068 46.0856 114.833 43.1826C115.577 40.3559 116.832 38.0231 118.596 36.1841C120.392 34.3266 122.632 33.1087 125.317 32.5305C128.002 31.9523 131.008 32.1169 134.337 33.0242C139.748 34.4994 143.834 37.3875 146.596 41.6883L140.275 48.317C140.004 47.5881 139.531 46.7494 138.855 45.8009C138.185 44.827 137.308 43.9191 136.223 43.0774C135.144 42.2101 133.931 41.593 132.585 41.2259C130.629 40.6926 128.953 40.85 127.559 41.6981C126.197 42.5277 125.291 43.7956 124.842 45.5017C124.5 46.8004 124.512 48.0457 124.879 49.2374C125.278 50.4106 125.894 51.5339 126.728 52.6073C127.587 53.6876 128.765 55.0049 130.262 56.5593C132.986 59.3487 135.028 61.6249 136.388 63.3876C137.748 65.1504 138.735 67.1935 139.348 69.5169C139.994 71.8217 139.934 74.4257 139.17 77.3287C138.358 80.4099 136.997 82.8909 135.085 84.7717C133.174 86.6525 130.829 87.8554 128.049 88.3804C125.276 88.88 122.213 88.6726 118.859 87.7584ZM174.481 53.9573L170.799 67.9376L186.5 72.2178L184.247 80.774L168.546 76.4938L162.67 98.8011L152.915 96.1415L166.938 42.8943L194.682 50.4574L192.469 58.8609L174.481 53.9573ZM224.93 58.7035C230.926 60.3381 235.302 63.0593 238.057 66.8671C240.818 70.6495 241.31 75.9148 239.533 82.663C238.567 86.33 236.993 89.5171 234.809 92.2244C232.633 94.9062 229.848 96.7945 226.455 97.8893C223.095 98.9656 219.268 98.9185 214.974 97.7481L210.249 96.4598L206.486 110.746L196.654 108.065L210.678 54.818L224.93 58.7035ZM216.401 89.5396C219.729 90.4469 222.493 90.136 224.693 88.6068C226.925 87.0591 228.547 84.3627 229.56 80.5175C230.264 77.8436 230.504 75.5891 230.279 73.7538C230.061 71.893 229.298 70.3474 227.988 69.117C226.704 67.8934 224.804 66.9389 222.289 66.2532L218.478 65.2143L212.361 88.4383L216.401 89.5396Z" fill="#FEDF86"/>
<path d="M41.6698 30.0336L41.7971 29.5501L41.3666 29.4328L41.2049 29.8481L41.6698 30.0336ZM36.3671 43.654L35.9023 43.4685L35.6992 43.9901L36.2398 44.1375L36.3671 43.654ZM44.2176 45.7941L44.7 45.9256L44.8274 45.4421L44.345 45.3106L44.2176 45.7941ZM42.6684 51.6765L42.541 52.16L43.0234 52.2915L43.1508 51.808L42.6684 51.6765ZM34.1319 49.3494L34.2592 48.8659L33.8286 48.7484L33.667 49.1641L34.1319 49.3494ZM29.0664 62.3793L28.9391 62.8628L29.3697 62.9802L29.5313 62.5646L29.0664 62.3793ZM22.3592 60.5509L21.8942 60.3656L21.6915 60.8871L22.2318 61.0344L22.3592 60.5509ZM27.4247 47.5209L27.8896 47.7062L28.0923 47.1847L27.552 47.0374L27.4247 47.5209ZM18.6595 45.1314L18.7869 44.6479L18.3562 44.5305L18.1946 44.9462L18.6595 45.1314ZM13.594 58.1614L13.4667 58.6449L13.8974 58.7623L14.059 58.3466L13.594 58.1614ZM6.88679 56.3329L6.42185 56.1477L6.21913 56.6691L6.75945 56.8164L6.88679 56.3329ZM11.9523 43.303L12.4172 43.4882L12.6199 42.9668L12.0796 42.8195L11.9523 43.303ZM4.02554 41.1421L3.54315 41.0106L3.4158 41.4941L3.8982 41.6256L4.02554 41.1421ZM5.57478 35.2597L5.70212 34.7761L5.21973 34.6446L5.09239 35.1282L5.57478 35.2597ZM14.1875 37.6076L14.0601 38.0911L14.4906 38.2084L14.6523 37.7931L14.1875 37.6076ZM19.4902 23.9872L19.955 24.1727L20.1581 23.6511L19.6175 23.5037L19.4902 23.9872ZM11.2585 21.7432L10.7761 21.6117L10.6488 22.0952L11.1312 22.2267L11.2585 21.7432ZM12.7877 15.9372L12.915 15.4537L12.4326 15.3222L12.3053 15.8057L12.7877 15.9372ZM21.7052 18.3682L21.5779 18.8517L22.0084 18.9691L22.1701 18.5537L21.7052 18.3682ZM27.0079 4.74789L27.1353 4.26438L26.7048 4.14703L26.5431 4.56241L27.0079 4.74789ZM33.7152 6.57635L34.18 6.76184L34.3831 6.24021L33.8425 6.09284L33.7152 6.57635ZM28.4125 20.1967L27.9476 20.0112L27.7446 20.5328L28.2851 20.6802L28.4125 20.1967ZM37.1776 22.5862L37.0503 23.0697L37.4808 23.187L37.6425 22.7716L37.1776 22.5862ZM42.4803 8.96582L42.6076 8.48231L42.1772 8.36495L42.0154 8.78033L42.4803 8.96582ZM49.1875 10.7943L49.6524 10.9798L49.8555 10.4581L49.3149 10.3108L49.1875 10.7943ZM43.8849 24.4146L43.42 24.2291L43.2169 24.7508L43.7575 24.8981L43.8849 24.4146ZM51.4305 26.4716L51.9129 26.6031L52.0402 26.1196L51.5578 25.9881L51.4305 26.4716ZM49.9014 32.2776L49.774 32.7612L50.2564 32.8927L50.3838 32.4091L49.9014 32.2776ZM34.9625 28.2052L35.4274 28.3906L35.6305 27.869L35.0899 27.7217L34.9625 28.2052ZM26.1974 25.8157L26.3247 25.3322L25.8943 25.2148L25.7325 25.6302L26.1974 25.8157ZM20.8947 39.436L20.4299 39.2505L20.2268 39.7722L20.7674 39.9195L20.8947 39.436ZM29.6599 41.8255L29.5325 42.309L29.963 42.4264L30.1247 42.011L29.6599 41.8255ZM41.2049 29.8481L35.9023 43.4685L36.8319 43.8394L42.1346 30.2191L41.2049 29.8481ZM36.2398 44.1375L44.0903 46.2776L44.345 45.3106L36.4944 43.1704L36.2398 44.1375ZM43.7352 45.6626L42.186 51.545L43.1508 51.808L44.7 45.9256L43.7352 45.6626ZM42.7957 51.193L34.2592 48.8659L34.0046 49.8329L42.541 52.16L42.7957 51.193ZM33.667 49.1641L28.6015 62.1941L29.5313 62.5646L34.5968 49.5346L33.667 49.1641ZM29.1937 61.8958L22.4865 60.0673L22.2318 61.0344L28.9391 62.8628L29.1937 61.8958ZM22.8241 60.7361L27.8896 47.7062L26.9597 47.3356L21.8942 60.3656L22.8241 60.7361ZM27.552 47.0374L18.7869 44.6479L18.5322 45.615L27.2973 48.0044L27.552 47.0374ZM18.1946 44.9462L13.1291 57.9761L14.059 58.3466L19.1245 45.3167L18.1946 44.9462ZM13.7214 57.6779L7.01413 55.8494L6.75945 56.8164L13.4667 58.6449L13.7214 57.6779ZM7.35172 56.5182L12.4172 43.4882L11.4873 43.1177L6.42185 56.1477L7.35172 56.5182ZM12.0796 42.8195L4.15288 40.6586L3.8982 41.6256L11.8249 43.7865L12.0796 42.8195ZM4.50794 41.2736L6.05718 35.3912L5.09239 35.1282L3.54315 41.0106L4.50794 41.2736ZM5.44744 35.7432L14.0601 38.0911L14.3148 37.1241L5.70212 34.7761L5.44744 35.7432ZM14.6523 37.7931L19.955 24.1727L19.0253 23.8018L13.7226 37.4221L14.6523 37.7931ZM19.6175 23.5037L11.3859 21.2597L11.1312 22.2267L19.3628 24.4708L19.6175 23.5037ZM11.7409 21.8747L13.2701 16.0687L12.3053 15.8057L10.7761 21.6117L11.7409 21.8747ZM12.6603 16.4207L21.5779 18.8517L21.8326 17.8847L12.915 15.4537L12.6603 16.4207ZM22.1701 18.5537L27.4728 4.93338L26.5431 4.56241L21.2404 18.1827L22.1701 18.5537ZM26.8806 5.23141L33.5878 7.05987L33.8425 6.09284L27.1353 4.26438L26.8806 5.23141ZM33.2503 6.39087L27.9476 20.0112L28.8773 20.3822L34.18 6.76184L33.2503 6.39087ZM28.2851 20.6802L37.0503 23.0697L37.305 22.1026L28.5398 19.7132L28.2851 20.6802ZM37.6425 22.7716L42.9451 9.1513L42.0154 8.78033L36.7128 22.4007L37.6425 22.7716ZM42.353 9.44933L49.0602 11.2778L49.3149 10.3108L42.6076 8.48231L42.353 9.44933ZM48.7227 10.6088L43.42 24.2291L44.3497 24.6001L49.6524 10.9798L48.7227 10.6088ZM43.7575 24.8981L51.3032 26.9551L51.5578 25.9881L44.0122 23.9311L43.7575 24.8981ZM50.9481 26.3401L49.419 32.1461L50.3838 32.4091L51.9129 26.6031L50.9481 26.3401ZM50.0287 31.7941L41.7971 29.5501L41.5424 30.5171L49.774 32.7612L50.0287 31.7941ZM35.0899 27.7217L26.3247 25.3322L26.0701 26.2992L34.8352 28.6887L35.0899 27.7217ZM25.7325 25.6302L20.4299 39.2505L21.3596 39.6215L26.6622 26.0012L25.7325 25.6302ZM20.7674 39.9195L29.5325 42.309L29.7872 41.342L21.0221 38.9525L20.7674 39.9195ZM30.1247 42.011L35.4274 28.3906L34.4977 28.0197L29.195 41.64L30.1247 42.011ZM90.4963 69.8733L90.9787 70.0048L91.1061 69.5213L90.6237 69.3898L90.4963 69.8733ZM88.2228 78.5059L88.0954 78.9894L88.5778 79.1209L88.7052 78.6374L88.2228 78.5059ZM58.9548 70.5272L58.4724 70.3957L58.3451 70.8792L58.8275 71.0107L58.9548 70.5272ZM72.9785 17.2799L73.1058 16.7964L72.6234 16.6649L72.4961 17.1484L72.9785 17.2799ZM100.722 24.8431L101.204 24.9746L101.332 24.4911L100.849 24.3596L100.722 24.8431ZM98.529 33.1701L98.4016 33.6537L98.884 33.7852L99.0113 33.3016L98.529 33.1701ZM80.3127 28.2042L80.44 27.7207L79.9576 27.5892L79.8303 28.0727L80.3127 28.2042ZM77.0331 40.6566L76.5507 40.5251L76.4234 41.0086L76.9058 41.1401L77.0331 40.6566ZM91.5147 44.6044L91.9971 44.7359L92.1244 44.2524L91.642 44.1209L91.5147 44.6044ZM89.382 52.7023L89.2546 53.1858L89.737 53.3173L89.8644 52.8338L89.382 52.7023ZM74.9004 48.7545L75.0278 48.2709L74.5454 48.1394L74.418 48.6229L74.9004 48.7545ZM70.7557 64.4918L70.2733 64.3603L70.146 64.8438L70.6284 64.9753L70.7557 64.4918ZM90.0139 69.7418L87.7404 78.3744L88.7052 78.6374L90.9787 70.0048L90.0139 69.7418ZM88.3501 78.0224L59.0822 70.0437L58.8275 71.0107L88.0954 78.9894L88.3501 78.0224ZM59.4372 70.6587L73.4609 17.4114L72.4961 17.1484L58.4724 70.3957L59.4372 70.6587ZM72.8511 17.7634L100.595 25.3266L100.849 24.3596L73.1058 16.7964L72.8511 17.7634ZM100.24 24.7116L98.0466 33.0386L99.0113 33.3016L101.204 24.9746L100.24 24.7116ZM98.6563 32.6866L80.44 27.7207L80.1854 28.6877L98.4016 33.6537L98.6563 32.6866ZM79.8303 28.0727L76.5507 40.5251L77.5155 40.7881L80.7951 28.3357L79.8303 28.0727ZM76.9058 41.1401L91.3873 45.0879L91.642 44.1209L77.1605 40.1731L76.9058 41.1401ZM91.0323 44.4729L88.8996 52.5708L89.8644 52.8338L91.9971 44.7359L91.0323 44.4729ZM89.5093 52.2187L75.0278 48.2709L74.7731 49.238L89.2546 53.1858L89.5093 52.2187ZM74.418 48.6229L70.2733 64.3603L71.2381 64.6233L75.3828 48.886L74.418 48.6229ZM70.6284 64.9753L90.369 70.3568L90.6237 69.3898L70.883 64.0083L70.6284 64.9753ZM112.373 85.0896L112.125 85.5225L112.127 85.5233L112.373 85.0896ZM107.459 81.4163L107.807 81.0599L107.807 81.0599L107.459 81.4163ZM104.459 77.6098L104.08 77.2803L103.855 77.5414L104.021 77.8469L104.459 77.6098ZM110.458 70.648L110.919 70.4582L110.607 69.7071L110.08 70.3185L110.458 70.648ZM112.482 73.8199L112.868 73.5052L112.868 73.5052L112.482 73.8199ZM115.976 77.147L115.679 77.5471L115.681 77.5487L115.976 77.147ZM125.809 79.0496L126.014 79.5079L126.015 79.5075L125.809 79.0496ZM129.037 71.2912L128.561 71.4382L128.564 71.4456L128.566 71.453L129.037 71.2912ZM127.234 68.0567L126.843 68.3647L126.851 68.3755L127.234 68.0567ZM123.323 63.6745L122.964 64.0191L122.964 64.0195L123.323 63.6745ZM117.661 57.259L117.266 57.562L117.269 57.5659L117.661 57.259ZM114.662 51.1193L114.181 51.2483L114.183 51.2553L114.662 51.1193ZM118.596 36.1841L118.237 35.8337L118.235 35.8351L118.596 36.1841ZM125.317 32.5305L125.209 32.0405L125.209 32.0405L125.317 32.5305ZM146.596 41.6883L146.957 42.0363L147.228 41.7521L147.014 41.419L146.596 41.6883ZM140.275 48.317L139.808 48.4892L140.087 49.2411L140.637 48.665L140.275 48.317ZM138.855 45.8009L138.445 46.0835L138.45 46.0906L138.855 45.8009ZM136.223 43.0774L135.913 43.4677L135.92 43.4731L136.223 43.0774ZM127.559 41.6981L127.298 41.269L127.298 41.2692L127.559 41.6981ZM124.879 49.2374L124.403 49.3822L124.405 49.3892L124.407 49.3962L124.879 49.2374ZM126.728 52.6073L126.336 52.9137L126.339 52.9182L126.728 52.6073ZM130.262 56.5593L129.905 56.9062L129.907 56.9087L130.262 56.5593ZM136.388 63.3876L135.994 63.6927L135.994 63.6927L136.388 63.3876ZM139.348 69.5169L138.866 69.6419L138.868 69.6492L139.348 69.5169ZM135.085 84.7717L134.735 84.4125L134.735 84.4125L135.085 84.7717ZM128.049 88.3804L128.141 88.8737L128.145 88.8729L128.049 88.3804ZM118.987 87.2749C116.662 86.6412 114.541 85.7676 112.62 84.6559L112.127 85.5233C114.128 86.6818 116.331 87.5874 118.732 88.2419L118.987 87.2749ZM112.621 84.6567C110.715 83.5458 109.112 82.346 107.807 81.0599L107.111 81.7728C108.487 83.1281 110.16 84.3771 112.125 85.5225L112.621 84.6567ZM107.807 81.0599C106.49 79.7626 105.526 78.5331 104.896 77.3727L104.021 77.8469C104.711 79.1205 105.747 80.4287 107.111 81.7728L107.807 81.0599ZM104.837 77.9393L110.837 70.9776L110.08 70.3185L104.08 77.2803L104.837 77.9393ZM109.998 70.8378C110.407 71.8233 111.114 72.9233 112.096 74.1346L112.868 73.5052C111.918 72.3338 111.276 71.3192 110.919 70.4582L109.998 70.8378ZM112.096 74.1346C113.091 75.3613 114.286 76.4984 115.679 77.547L116.274 76.7469C114.94 75.7421 113.806 74.6612 112.868 73.5052L112.096 74.1346ZM115.681 77.5487C117.116 78.6164 118.629 79.3708 120.219 79.8043L120.474 78.8372C119.015 78.4396 117.615 77.7448 116.272 76.7452L115.681 77.5487ZM120.219 79.8043C122.318 80.3766 124.259 80.2895 126.014 79.5079L125.604 78.5913C124.09 79.2656 122.388 79.3592 120.474 78.8372L120.219 79.8043ZM126.015 79.5075C127.838 78.6912 129.025 77.179 129.587 75.0438L128.622 74.7808C128.125 76.6692 127.114 77.9151 125.603 78.5917L126.015 79.5075ZM129.587 75.0438C129.951 73.6628 129.932 72.3525 129.508 71.1295L128.566 71.453C128.916 72.4607 128.943 73.5644 128.622 74.7808L129.587 75.0438ZM129.513 71.1442C129.136 69.9406 128.501 68.8051 127.617 67.7379L126.851 68.3755C127.662 69.3533 128.228 70.3741 128.561 71.4382L129.513 71.1442ZM127.625 67.7488C126.795 66.6879 125.477 65.2128 123.683 63.3294L122.964 64.0195C124.753 65.8972 126.043 67.3436 126.843 68.3646L127.625 67.7488ZM123.683 63.3298C121.236 60.7562 119.361 58.6312 118.053 56.952L117.269 57.5659C118.606 59.2826 120.506 61.4347 122.964 64.0191L123.683 63.3298ZM118.056 56.9559C116.783 55.2889 115.809 53.3008 115.141 50.9833L114.183 51.2553C114.881 53.6772 115.907 55.7822 117.266 57.562L118.056 56.9559ZM115.143 50.9904C114.52 48.7044 114.568 46.1503 115.315 43.3141L114.35 43.0511C113.568 46.0208 113.502 48.758 114.181 51.2483L115.143 50.9904ZM115.315 43.3141C116.041 40.5575 117.258 38.3031 118.956 36.5332L118.235 35.8351C116.405 37.7432 115.113 40.1544 114.35 43.0511L115.315 43.3141ZM118.955 36.5346C120.679 34.7519 122.83 33.5794 125.425 33.0205L125.209 32.0405C122.435 32.638 120.105 33.9013 118.237 35.8337L118.955 36.5346ZM125.425 33.0205C128.015 32.4627 130.939 32.6162 134.209 33.5077L134.464 32.5407C131.078 31.6175 127.989 31.4419 125.209 32.0405L125.425 33.0205ZM134.209 33.5077C139.514 34.9538 143.49 37.773 146.177 41.9576L147.014 41.419C144.179 37.002 139.982 34.045 134.464 32.5407L134.209 33.5077ZM146.234 41.3403L139.914 47.9691L140.637 48.665L146.957 42.0363L146.234 41.3403ZM140.742 48.1449C140.45 47.3591 139.95 46.48 139.26 45.5113L138.45 46.0906C139.111 47.0189 139.558 47.8172 139.808 48.4892L140.742 48.1449ZM139.265 45.5184C138.561 44.495 137.646 43.5502 136.526 42.6816L135.92 43.4731C136.97 44.288 137.809 45.1589 138.445 46.0835L139.265 45.5184ZM136.533 42.6871C135.399 41.776 134.125 41.1274 132.712 40.7424L132.458 41.7094C133.738 42.0586 134.889 42.6443 135.913 43.4676L136.533 42.6871ZM132.712 40.7424C130.658 40.1823 128.835 40.3342 127.298 41.269L127.82 42.1273C129.072 41.3659 130.6 41.203 132.458 41.7094L132.712 40.7424ZM127.298 41.2692C125.815 42.1723 124.838 43.5535 124.359 45.3702L125.324 45.6332C125.744 44.0377 126.579 42.8831 127.82 42.1271L127.298 41.2692ZM124.359 45.3702C123.996 46.7519 124.006 48.0932 124.403 49.3822L125.356 49.0927C125.019 47.9981 125.004 46.849 125.324 45.6332L124.359 45.3702ZM124.407 49.3962C124.826 50.6276 125.471 51.8001 126.336 52.9137L127.121 52.3009C126.318 51.2677 125.73 50.1937 125.351 49.0786L124.407 49.3962ZM126.339 52.9182C127.212 54.0159 128.402 55.346 129.905 56.9062L130.619 56.2123C129.128 54.6639 127.962 53.3593 127.117 52.2964L126.339 52.9182ZM129.907 56.9087C132.626 59.6929 134.652 61.9528 135.994 63.6927L136.781 63.0825C135.403 61.2969 133.346 59.0046 130.617 56.2098L129.907 56.9087ZM135.994 63.6927C137.31 65.3978 138.268 67.3785 138.866 69.6419L139.83 69.3918C139.201 67.0084 138.186 64.9029 136.781 63.0825L135.994 63.6927ZM138.868 69.6492C139.484 71.848 139.435 74.3584 138.687 77.1972L139.652 77.4602C140.434 74.4929 140.504 71.7954 139.828 69.3845L138.868 69.6492ZM138.687 77.1972C137.894 80.2079 136.572 82.6049 134.735 84.4125L135.436 85.1309C137.422 83.177 138.822 80.6119 139.652 77.4602L138.687 77.1972ZM134.735 84.4125C132.897 86.2207 130.642 87.3801 127.953 87.8879L128.145 88.8729C131.015 88.3307 133.451 87.0842 135.436 85.1309L134.735 84.4125ZM127.957 87.8872C125.272 88.371 122.285 88.174 118.987 87.2749L118.732 88.2419C122.141 89.1713 125.28 89.389 128.141 88.8736L127.957 87.8872ZM174.481 53.9573L174.608 53.4738L174.126 53.3423L173.999 53.8258L174.481 53.9573ZM170.799 67.9376L170.317 67.806L170.189 68.2896L170.672 68.4211L170.799 67.9376ZM186.5 72.2178L186.982 72.3493L187.11 71.8658L186.627 71.7343L186.5 72.2178ZM184.247 80.774L184.119 81.2576L184.602 81.3891L184.729 80.9055L184.247 80.774ZM168.546 76.4938L168.673 76.0103L168.19 75.8788L168.063 76.3623L168.546 76.4938ZM162.67 98.8011L162.543 99.2846L163.026 99.4161L163.153 98.9326L162.67 98.8011ZM152.915 96.1415L152.432 96.01L152.305 96.4935L152.787 96.625L152.915 96.1415ZM166.938 42.8943L167.065 42.4107L166.583 42.2792L166.456 42.7628L166.938 42.8943ZM194.682 50.4574L195.164 50.5889L195.291 50.1054L194.809 49.9739L194.682 50.4574ZM192.469 58.8609L192.341 59.3444L192.824 59.4759L192.951 58.9924L192.469 58.8609ZM173.999 53.8258L170.317 67.806L171.281 68.0691L174.963 54.0888L173.999 53.8258ZM170.672 68.4211L186.373 72.7013L186.627 71.7343L170.926 67.454L170.672 68.4211ZM186.018 72.0863L183.764 80.6425L184.729 80.9055L186.982 72.3493L186.018 72.0863ZM184.374 80.2905L168.673 76.0103L168.418 76.9773L184.119 81.2576L184.374 80.2905ZM168.063 76.3623L162.188 98.6696L163.153 98.9326L169.028 76.6253L168.063 76.3623ZM162.798 98.3176L153.042 95.658L152.787 96.625L162.543 99.2846L162.798 98.3176ZM153.397 96.273L167.421 43.0258L166.456 42.7628L152.432 96.01L153.397 96.273ZM166.811 43.3778L194.554 50.9409L194.809 49.9739L167.065 42.4107L166.811 43.3778ZM194.199 50.3259L191.986 58.7294L192.951 58.9924L195.164 50.5889L194.199 50.3259ZM192.596 58.3774L174.608 53.4738L174.354 54.4408L192.341 59.3444L192.596 58.3774ZM238.057 66.8671L237.654 67.1597L237.655 67.1614L238.057 66.8671ZM234.809 92.2244L235.197 92.5427L235.198 92.5415L234.809 92.2244ZM226.455 97.8893L226.61 98.3668L226.611 98.3665L226.455 97.8893ZM210.249 96.4598L210.376 95.9763L209.893 95.8448L209.766 96.3283L210.249 96.4598ZM206.486 110.746L206.359 111.229L206.841 111.361L206.968 110.877L206.486 110.746ZM196.654 108.065L196.171 107.934L196.044 108.417L196.527 108.549L196.654 108.065ZM210.678 54.818L210.805 54.3345L210.322 54.203L210.195 54.6865L210.678 54.818ZM224.693 88.6068L224.407 88.1938L224.407 88.1941L224.693 88.6068ZM230.279 73.7538L229.784 73.8086L229.784 73.8112L230.279 73.7538ZM227.988 69.117L227.646 69.4793L227.648 69.4817L227.988 69.117ZM218.478 65.2143L218.605 64.7308L218.123 64.5993L217.995 65.0828L218.478 65.2143ZM212.361 88.4383L211.879 88.3068L211.751 88.7904L212.234 88.9219L212.361 88.4383ZM224.803 59.187C230.725 60.8013 234.986 63.4719 237.654 67.1597L238.459 66.5746C235.618 62.6466 231.128 59.8748 225.058 58.22L224.803 59.187ZM237.655 67.1614C240.29 70.7698 240.809 75.8553 239.051 82.5315L240.015 82.7945C241.812 75.9744 241.347 70.5292 238.458 66.5728L237.655 67.1614ZM239.051 82.5315C238.101 86.1365 236.556 89.259 234.421 91.9072L235.198 92.5415C237.429 89.7752 239.033 86.5234 240.015 82.7945L239.051 82.5315ZM234.422 91.906C232.307 94.511 229.604 96.3457 226.299 97.4122L226.611 98.3665C230.092 97.2433 232.958 95.3013 235.197 92.5427L234.422 91.906ZM226.3 97.4118C223.052 98.4522 219.326 98.4162 215.101 97.2645L214.847 98.2316C219.21 99.4209 223.137 99.479 226.61 98.3668L226.3 97.4118ZM215.101 97.2645L210.376 95.9763L210.121 96.9433L214.847 98.2316L215.101 97.2645ZM209.766 96.3283L206.004 110.614L206.968 110.877L210.731 96.5913L209.766 96.3283ZM206.613 110.262L196.781 107.582L196.527 108.549L206.359 111.229L206.613 110.262ZM197.136 108.197L211.16 54.9495L210.195 54.6865L196.171 107.934L197.136 108.197ZM210.55 55.3016L224.803 59.187L225.058 58.22L210.805 54.3345L210.55 55.3016ZM216.273 90.0231C219.7 90.9573 222.626 90.6547 224.979 89.0195L224.407 88.1941C222.36 89.6172 219.757 89.9364 216.528 89.0561L216.273 90.0231ZM224.978 89.0198C227.343 87.38 229.013 84.5575 230.042 80.649L229.078 80.3859C228.082 84.1678 226.507 86.7382 224.407 88.1938L224.978 89.0198ZM230.042 80.649C230.756 77.9414 231.01 75.6183 230.775 73.6963L229.784 73.8112C229.998 75.5598 229.773 77.7458 229.078 80.3859L230.042 80.649ZM230.775 73.6989C230.544 71.7253 229.728 70.0681 228.327 68.7522L227.648 69.4817C228.867 70.6267 229.579 72.0607 229.784 73.8086L230.775 73.6989ZM228.33 68.7546C226.963 67.4526 224.976 66.4676 222.416 65.7697L222.161 66.7367C224.631 67.4101 226.444 68.3343 227.646 69.4793L228.33 68.7546ZM222.416 65.7697L218.605 64.7308L218.35 65.6978L222.161 66.7367L222.416 65.7697ZM217.995 65.0828L211.879 88.3068L212.844 88.5699L218.96 65.3458L217.995 65.0828ZM212.234 88.9219L216.273 90.0231L216.528 89.0561L212.488 87.9548L212.234 88.9219Z" fill="black"/>
</svg>
