<svg width="55" height="55" viewBox="0 0 55 55" fill="none" xmlns="http://www.w3.org/2000/svg">
<path d="M27.5 0C12.3063 0 0 12.3131 0 27.5C0 39.6527 7.87875 49.9583 18.8031 53.5906C20.1781 53.8496 20.6823 52.9994 20.6823 52.2683C20.6823 51.6152 20.6594 49.885 20.6479 47.5933C12.9983 49.2525 11.385 43.9037 11.385 43.9037C10.1337 40.7298 8.32563 39.8819 8.32563 39.8819C5.83458 38.1769 8.51813 38.2113 8.51813 38.2113C11.2796 38.4038 12.7302 41.0438 12.7302 41.0438C15.1823 45.249 19.1675 44.0344 20.7396 43.3308C20.9871 41.5525 21.6952 40.3402 22.4813 39.6527C16.374 38.9652 9.955 36.6002 9.955 26.0631C9.955 23.061 11.0206 20.609 12.7852 18.684C12.4758 17.9896 11.5477 15.1938 13.0258 11.4056C13.0258 11.4056 15.329 10.6677 20.5883 14.2244C22.7883 13.6125 25.1258 13.31 27.4633 13.2963C29.8008 13.31 32.1383 13.6125 34.3383 14.2244C39.5633 10.6677 41.8665 11.4056 41.8665 11.4056C43.3446 15.1938 42.4165 17.9896 42.1415 18.684C43.8946 20.609 44.9602 23.061 44.9602 26.0631C44.9602 36.6277 38.5321 38.9538 32.4133 39.6298C33.3758 40.4548 34.2696 42.1415 34.2696 44.7173C34.2696 48.3977 34.2352 51.354 34.2352 52.2477C34.2352 52.9696 34.7165 53.829 36.1258 53.554C47.1281 49.9469 55 39.6344 55 27.5C55 12.3131 42.6869 0 27.5 0Z" fill="black"/>
</svg>
