<svg width="55" height="55" viewBox="0 0 55 55" fill="none" xmlns="http://www.w3.org/2000/svg">
<g clip-path="url(#clip0_613_4)">
<rect width="55" height="55" rx="27.5" fill="#423B3B"/>
<g filter="url(#filter0_d_613_4)">
<path d="M50.7031 0H4.29688C1.92363 0 0 1.92363 0 4.29688V50.7031C0 53.0764 1.92363 55 4.29688 55H50.7031C53.0764 55 55 53.0764 55 50.7031V4.29688C55 1.92363 53.0764 0 50.7031 0ZM27.5 42.9688C26.1456 42.9688 24.8194 42.8741 23.5315 42.6917C22.2422 43.6003 14.7934 48.8327 14.0903 48.9308C14.0903 48.9308 13.802 49.0428 13.5568 48.8984C13.3116 48.7541 13.3561 48.3755 13.3561 48.3755C13.4299 47.8718 15.287 41.4585 15.6294 40.2783C9.33831 37.1617 5.15625 31.642 5.15625 25.3516C5.15625 15.6218 15.1598 7.73438 27.5 7.73438C39.8402 7.73438 49.8438 15.6218 49.8438 25.3516C49.8438 35.0813 39.8402 42.9688 27.5 42.9688ZM18.447 22.6123H16.4356V30.2704C16.4356 30.9494 15.8574 31.5015 15.1465 31.5015C14.4357 31.5015 13.8575 30.9494 13.8575 30.2704V22.6123H11.8461C11.1485 22.6123 10.5811 22.0461 10.5811 21.3501C10.5811 20.6541 11.1487 20.0878 11.8461 20.0878H18.447C19.1446 20.0878 19.712 20.6541 19.712 21.3501C19.712 22.0461 19.1444 22.6123 18.447 22.6123ZM43.6276 29.3879C43.73 29.5227 43.8047 29.6766 43.8471 29.8405C43.8896 30.0044 43.8991 30.1752 43.8751 30.3428C43.8521 30.5106 43.796 30.6721 43.7101 30.818C43.6243 30.964 43.5103 31.0914 43.3748 31.193C43.1519 31.3624 42.8795 31.4538 42.5996 31.4531C42.3998 31.4541 42.2027 31.4082 42.0239 31.3192C41.8451 31.2302 41.6896 31.1006 41.5699 30.9407L38.5468 26.9351L38.0994 27.3824V30.195C38.099 30.5369 37.963 30.8647 37.7213 31.1064C37.4795 31.3482 37.1518 31.4843 36.8099 31.4848C36.4681 31.4844 36.1404 31.3485 35.8987 31.1069C35.657 30.8652 35.5211 30.5375 35.5208 30.1957V21.3769C35.5208 20.666 36.099 20.0878 36.8099 20.0878C37.5208 20.0878 38.099 20.666 38.099 21.3769V24.1475L41.6955 20.551C41.8804 20.366 42.1346 20.2641 42.4105 20.2641C42.7323 20.2641 43.0554 20.4029 43.2976 20.6447C43.5233 20.8702 43.6581 21.1606 43.6767 21.4619C43.6954 21.766 43.5941 22.0445 43.3923 22.2468L40.4548 25.184L43.6276 29.3879ZM24.4917 21.3618C24.274 20.7432 23.6143 20.1071 22.7723 20.0883C21.9329 20.1073 21.2731 20.7432 21.0558 21.3604L17.9724 29.4763C17.581 30.6921 17.9227 31.1428 18.2779 31.3069C18.535 31.4245 18.8146 31.4852 19.0974 31.4848C19.635 31.4848 20.0459 31.2666 20.1694 30.9162L20.8081 29.244L24.7388 29.2442L25.377 30.9153C25.501 31.2664 25.9121 31.4845 26.4497 31.4845C26.7325 31.4848 27.012 31.4242 27.2692 31.3069C27.6247 31.1435 27.9661 30.6925 27.5738 29.4738L24.4917 21.3618ZM21.486 26.961L22.7734 23.3033L24.0609 26.961H21.486ZM35.0196 30.1318C35.0196 30.7833 34.4655 31.3133 33.7842 31.3133H29.6484C28.9671 31.3133 28.413 30.783 28.413 30.1318V21.3769C28.413 20.666 29.0033 20.0878 29.7289 20.0878C30.4544 20.0878 31.0448 20.666 31.0448 21.3769V28.9502H33.784C34.4655 28.9502 35.0196 29.4805 35.0196 30.1318Z" fill="#FFCD00"/>
</g>
</g>
<defs>
<filter id="filter0_d_613_4" x="-4" y="0" width="63" height="63" filterUnits="userSpaceOnUse" color-interpolation-filters="sRGB">
<feFlood flood-opacity="0" result="BackgroundImageFix"/>
<feColorMatrix in="SourceAlpha" type="matrix" values="0 0 0 0 0 0 0 0 0 0 0 0 0 0 0 0 0 0 127 0" result="hardAlpha"/>
<feOffset dy="4"/>
<feGaussianBlur stdDeviation="2"/>
<feComposite in2="hardAlpha" operator="out"/>
<feColorMatrix type="matrix" values="0 0 0 0 0 0 0 0 0 0 0 0 0 0 0 0 0 0 0.25 0"/>
<feBlend mode="normal" in2="BackgroundImageFix" result="effect1_dropShadow_613_4"/>
<feBlend mode="normal" in="SourceGraphic" in2="effect1_dropShadow_613_4" result="shape"/>
</filter>
<clipPath id="clip0_613_4">
<rect width="55" height="55" rx="27.5" fill="white"/>
</clipPath>
</defs>
</svg>
