<svg width="294" height="312" viewBox="0 0 294 312" fill="none" xmlns="http://www.w3.org/2000/svg">
<path d="M102.202 82.2341L104.399 90.6418L78.8518 97.5518L64.9305 44.2777L74.6155 41.6581L86.3397 86.5245L102.202 82.2341ZM142.659 71.0454L144.916 79.6824L115.633 87.6031L101.711 34.329L129.47 26.8208L131.647 35.152L113.421 40.0819L116.677 52.5405L131.166 48.6214L133.283 56.7234L118.794 60.6425L122.908 76.3878L142.659 71.0454ZM184.287 59.7859L186.543 68.4229L157.26 76.3437L143.338 23.0696L171.097 15.5613L173.274 23.8926L155.048 28.8224L158.304 41.2811L172.793 37.3619L174.91 45.4639L160.421 49.383L164.535 65.1283L184.287 59.7859ZM121.555 191.527C119.191 192.166 116.881 192.491 114.625 192.501C112.394 192.505 110.374 192.274 108.565 191.808C106.756 191.343 105.267 190.75 104.099 190.029L105.891 180.952C106.676 181.558 107.778 182.132 109.199 182.676C110.62 183.219 112.173 183.59 113.858 183.789C115.569 183.981 117.187 183.87 118.712 183.458C120.72 182.915 122.255 181.913 123.316 180.453C124.395 178.961 124.672 177.208 124.146 175.196C123.807 173.896 123.196 172.861 122.314 172.09C121.451 171.287 120.402 170.657 119.167 170.2C117.95 169.711 116.104 169.105 113.63 168.384C110.24 167.391 107.556 166.494 105.578 165.692C103.593 164.865 101.724 163.598 99.9709 161.889C98.2369 160.149 96.9904 157.826 96.2314 154.922C95.4924 152.094 95.4373 149.435 96.0661 146.947C96.7137 144.426 98.0598 142.234 100.104 140.371C102.149 138.509 104.836 137.127 108.166 136.227C113.58 134.762 118.538 135.194 123.038 137.523L120.805 146.475C120.213 145.98 119.392 145.493 118.341 145.013C117.284 144.508 116.079 144.166 114.725 143.986C113.365 143.781 112.012 143.861 110.664 144.226C108.707 144.755 107.332 145.741 106.538 147.183C105.764 148.593 105.599 150.151 106.045 151.858C106.385 153.158 107.006 154.231 107.907 155.078C108.828 155.893 109.912 156.554 111.161 157.062C112.435 157.563 114.102 158.108 116.161 158.697C119.888 159.735 122.773 160.673 124.816 161.511C126.859 162.35 128.715 163.621 130.385 165.324C132.074 166.995 133.297 169.283 134.056 172.188C134.862 175.27 134.897 178.112 134.161 180.711C133.425 183.311 131.98 185.543 129.828 187.407C127.668 189.246 124.911 190.619 121.555 191.527ZM168.849 178.817C164.121 180.095 159.799 180.064 155.883 178.723C151.961 177.356 148.608 174.839 145.827 171.173C143.038 167.48 140.912 162.832 139.447 157.227C137.996 151.672 137.57 146.605 138.169 142.024C138.787 137.41 140.442 133.539 143.136 130.41C145.848 127.248 149.542 125.035 154.22 123.77C159.075 122.457 163.467 122.496 167.396 123.889C171.319 125.255 174.645 127.779 177.376 131.459C180.133 135.133 182.233 139.734 183.678 145.263C185.142 150.868 185.553 155.981 184.91 160.601C184.285 165.189 182.617 169.064 179.905 172.225C177.186 175.361 173.501 177.558 168.849 178.817ZM166.712 170.638C168.974 170.026 170.805 168.754 172.205 166.82C173.631 164.88 174.478 162.291 174.748 159.053C175.018 155.816 174.594 152.057 173.475 147.777C171.831 141.484 169.512 136.983 166.517 134.274C163.542 131.532 160.135 130.681 156.297 131.719C152.56 132.73 150.095 135.17 148.901 139.039C147.727 142.875 147.968 147.966 149.626 154.31C150.758 158.641 152.19 162.141 153.921 164.81C155.671 167.446 157.626 169.25 159.785 170.22C161.963 171.159 164.272 171.298 166.712 170.638ZM75.0307 309.064C73.6072 309.449 71.7994 309.665 69.6072 309.713C67.4471 309.779 65.839 309.614 64.7829 309.217L66.0665 299.132C66.9484 299.902 67.9582 300.434 69.0961 300.726C70.2527 300.986 71.3394 300.979 72.3562 300.704C73.6271 300.36 74.6675 299.915 75.4773 299.369C76.2805 298.797 76.8406 297.868 77.1578 296.582C77.4683 295.27 77.3305 293.493 76.7447 291.251L66.7581 253.035L76.6718 250.353L86.4187 287.653C87.7836 292.876 87.6392 297.375 85.9858 301.15C84.3256 304.9 80.6739 307.538 75.0307 309.064ZM132.444 283.06L134.701 291.697L105.417 299.618L91.496 246.343L119.254 238.835L121.432 247.166L103.205 252.096L106.461 264.555L120.95 260.636L123.068 268.738L108.578 272.657L112.693 288.402L132.444 283.06ZM166.273 284.139C161.545 285.418 157.223 285.387 153.307 284.045C149.384 282.679 146.032 280.162 143.25 276.495C140.462 272.803 138.335 268.154 136.871 262.549C135.419 256.995 134.993 251.927 135.592 247.346C136.21 242.733 137.866 238.861 140.559 235.732C143.271 232.571 146.966 230.358 151.643 229.092C156.498 227.779 160.891 227.819 164.82 229.211C168.742 230.578 172.069 233.102 174.8 236.782C177.556 240.456 179.657 245.057 181.101 250.585C182.566 256.191 182.977 261.303 182.333 265.924C181.709 270.512 180.04 274.387 177.328 277.548C174.61 280.684 170.924 282.881 166.273 284.139ZM164.135 275.961C166.398 275.349 168.229 274.076 169.629 272.143C171.054 270.202 171.902 267.613 172.172 264.376C172.442 261.139 172.017 257.38 170.899 253.1C169.254 246.807 166.935 242.305 163.941 239.596C160.966 236.855 157.559 236.003 153.72 237.042C149.984 238.052 147.519 240.492 146.325 244.361C145.15 248.198 145.392 253.288 147.05 259.632C148.181 263.963 149.613 267.463 151.345 270.132C153.095 272.768 155.05 274.572 157.209 275.543C159.386 276.482 161.695 276.621 164.135 275.961ZM224.192 210.451L238.393 264.795L237.631 265.002L204.55 242.77L201.387 240.352L203.706 247.663L209.898 271.357L200.518 273.894L186.357 219.703L187.196 219.476L219.955 242.04L223.533 244.796L221.244 237.6L214.812 212.988L224.192 210.451ZM285.103 220.409C286.234 223.485 287.032 225.915 287.498 227.699C289.269 234.476 289.22 240.327 287.349 245.252C285.479 250.177 280.706 253.678 273.029 255.754C268.758 256.909 264.636 256.81 260.663 255.457C256.715 254.097 253.216 251.539 250.166 247.781C247.134 243.991 244.849 239.153 243.311 233.268C241.946 228.045 241.732 223.111 242.668 218.466C243.605 213.82 245.553 209.87 248.512 206.614C251.49 203.327 255.255 201.067 259.805 199.836C262.906 198.998 265.537 198.545 267.697 198.479C269.882 198.406 271.621 198.55 272.912 198.91C274.204 199.27 275.408 199.762 276.524 200.388L274.547 210.007C271.704 207.775 267.627 207.377 262.314 208.814C259.772 209.502 257.668 210.876 256.002 212.936C254.336 214.996 253.271 217.534 252.807 220.551C252.344 223.568 252.565 226.809 253.47 230.274C254.562 234.453 256.003 237.936 257.793 240.726C259.602 243.482 261.632 245.416 263.881 246.526C266.15 247.604 268.504 247.812 270.944 247.152C274.783 246.114 277.305 244.464 278.51 242.201C279.74 239.931 279.876 236.962 278.917 233.293C278.811 232.886 278.605 232.205 278.302 231.25L267.397 234.2L265.199 225.792L285.103 220.409Z" fill="#FEDF86"/>
<path d="M102.202 82.2341L102.684 82.1035L102.558 81.6198L102.075 81.7503L102.202 82.2341ZM104.399 90.6418L104.525 91.1255L105.008 90.995L104.881 90.5112L104.399 90.6418ZM78.8518 97.5518L78.3692 97.6824L78.4956 98.1661L78.9782 98.0356L78.8518 97.5518ZM64.9305 44.2777L64.8041 43.794L64.3214 43.9245L64.4478 44.4083L64.9305 44.2777ZM74.6155 41.6581L75.0981 41.5275L74.9717 41.0438L74.4891 41.1743L74.6155 41.6581ZM86.3397 86.5245L85.8571 86.6551L85.9835 87.1388L86.4661 87.0083L86.3397 86.5245ZM101.719 82.3646L103.916 90.7723L104.881 90.5112L102.684 82.1035L101.719 82.3646ZM104.272 90.158L78.7254 97.0681L78.9782 98.0356L104.525 91.1255L104.272 90.158ZM79.3345 97.4213L65.4132 44.1472L64.4478 44.4083L78.3692 97.6824L79.3345 97.4213ZM65.0569 44.7615L74.7419 42.1418L74.4891 41.1743L64.8041 43.794L65.0569 44.7615ZM74.1328 41.7886L85.8571 86.6551L86.8224 86.394L75.0981 41.5275L74.1328 41.7886ZM86.4661 87.0083L102.328 82.7178L102.075 81.7503L86.2133 86.0408L86.4661 87.0083ZM142.659 71.0454L143.142 70.9148L143.016 70.4311L142.533 70.5616L142.659 71.0454ZM144.916 79.6824L145.043 80.1661L145.526 80.0356L145.399 79.5518L144.916 79.6824ZM115.633 87.6031L115.15 87.7337L115.277 88.2174L115.759 88.0869L115.633 87.6031ZM101.711 34.329L101.585 33.8453L101.102 33.9758L101.229 34.4596L101.711 34.329ZM129.47 26.8208L129.953 26.6902L129.826 26.2065L129.344 26.337L129.47 26.8208ZM131.647 35.152L131.773 35.6358L132.256 35.5052L132.13 35.0215L131.647 35.152ZM113.421 40.0819L113.295 39.5981L112.812 39.7287L112.938 40.2124L113.421 40.0819ZM116.677 52.5405L116.194 52.6711L116.32 53.1549L116.803 53.0243L116.677 52.5405ZM131.166 48.6214L131.649 48.4909L131.522 48.0071L131.04 48.1377L131.166 48.6214ZM133.283 56.7234L133.41 57.2071L133.892 57.0766L133.766 56.5928L133.283 56.7234ZM118.794 60.6425L118.667 60.1587L118.185 60.2893L118.311 60.773L118.794 60.6425ZM122.908 76.3878L122.426 76.5183L122.552 77.0021L123.035 76.8715L122.908 76.3878ZM142.177 71.1759L144.434 79.8129L145.399 79.5518L143.142 70.9148L142.177 71.1759ZM144.79 79.1986L115.506 87.1194L115.759 88.0869L145.043 80.1661L144.79 79.1986ZM116.115 87.4726L102.194 34.1985L101.229 34.4596L115.15 87.7337L116.115 87.4726ZM101.838 34.8128L129.596 27.3045L129.344 26.337L101.585 33.8453L101.838 34.8128ZM128.987 26.9513L131.164 35.2826L132.13 35.0215L129.953 26.6902L128.987 26.9513ZM131.521 34.6683L113.295 39.5981L113.547 40.5657L131.773 35.6358L131.521 34.6683ZM112.938 40.2124L116.194 52.6711L117.159 52.41L113.904 39.9513L112.938 40.2124ZM116.803 53.0243L131.292 49.1052L131.04 48.1377L116.55 52.0568L116.803 53.0243ZM130.683 48.752L132.8 56.8539L133.766 56.5928L131.649 48.4909L130.683 48.752ZM133.157 56.2396L118.667 60.1587L118.92 61.1262L133.41 57.2071L133.157 56.2396ZM118.311 60.773L122.426 76.5183L123.391 76.2572L119.276 60.5119L118.311 60.773ZM123.035 76.8715L142.786 71.5291L142.533 70.5616L122.782 75.904L123.035 76.8715ZM184.287 59.7859L184.769 59.6554L184.643 59.1716L184.16 59.3022L184.287 59.7859ZM186.543 68.4229L186.67 68.9066L187.153 68.7761L187.026 68.2923L186.543 68.4229ZM157.26 76.3437L156.777 76.4742L156.904 76.958L157.386 76.8274L157.26 76.3437ZM143.338 23.0696L143.212 22.5858L142.729 22.7164L142.856 23.2001L143.338 23.0696ZM171.097 15.5613L171.58 15.4308L171.453 14.947L170.971 15.0776L171.097 15.5613ZM173.274 23.8926L173.4 24.3763L173.883 24.2458L173.757 23.762L173.274 23.8926ZM155.048 28.8224L154.922 28.3387L154.439 28.4692L154.565 28.953L155.048 28.8224ZM158.304 41.2811L157.821 41.4116L157.947 41.8954L158.43 41.7648L158.304 41.2811ZM172.793 37.3619L173.276 37.2314L173.149 36.7476L172.667 36.8782L172.793 37.3619ZM174.91 45.4639L175.037 45.9476L175.519 45.8171L175.393 45.3333L174.91 45.4639ZM160.421 49.383L160.294 48.8993L159.812 49.0298L159.938 49.5136L160.421 49.383ZM164.535 65.1283L164.053 65.2589L164.179 65.7426L164.662 65.6121L164.535 65.1283ZM183.804 59.9165L186.061 68.5534L187.026 68.2923L184.769 59.6554L183.804 59.9165ZM186.417 67.9391L157.133 75.8599L157.386 76.8274L186.67 68.9066L186.417 67.9391ZM157.742 76.2131L143.821 22.939L142.856 23.2001L156.777 76.4742L157.742 76.2131ZM143.465 23.5533L171.223 16.0451L170.971 15.0776L143.212 22.5858L143.465 23.5533ZM170.614 15.6919L172.791 24.0231L173.757 23.762L171.58 15.4308L170.614 15.6919ZM173.148 23.4088L154.922 28.3387L155.174 29.3062L173.4 24.3763L173.148 23.4088ZM154.565 28.953L157.821 41.4116L158.786 41.1505L155.531 28.6919L154.565 28.953ZM158.43 41.7648L172.919 37.8457L172.667 36.8782L158.177 40.7973L158.43 41.7648ZM172.31 37.4925L174.427 45.5944L175.393 45.3333L173.276 37.2314L172.31 37.4925ZM174.784 44.9801L160.294 48.8993L160.547 49.8668L175.037 45.9476L174.784 44.9801ZM159.938 49.5136L164.053 65.2589L165.018 64.9978L160.903 49.2525L159.938 49.5136ZM164.662 65.6121L184.413 60.2697L184.16 59.3022L164.409 64.6446L164.662 65.6121ZM114.625 192.501L114.622 193.002L114.623 193.002L114.625 192.501ZM108.565 191.808L108.692 191.323L108.692 191.323L108.565 191.808ZM104.099 190.029L103.61 189.935L103.542 190.276L103.836 190.457L104.099 190.029ZM105.891 180.952L106.197 180.554L105.559 180.061L105.402 180.858L105.891 180.952ZM109.199 182.676L109.38 182.207L109.38 182.207L109.199 182.676ZM113.858 183.789L113.797 184.286L113.799 184.287L113.858 183.789ZM123.316 180.453L123.718 180.747L123.718 180.746L123.316 180.453ZM122.314 172.09L121.974 172.459L121.979 172.464L121.985 172.469L122.314 172.09ZM119.167 170.2L118.978 170.666L118.991 170.671L119.167 170.2ZM113.63 168.384L113.487 168.865L113.487 168.865L113.63 168.384ZM105.578 165.692L105.384 166.155L105.388 166.157L105.578 165.692ZM99.9709 161.889L99.6168 162.245L99.6221 162.25L99.9709 161.889ZM96.0661 146.947L95.5831 146.825L95.5826 146.827L96.0661 146.947ZM100.104 140.371L99.7705 140.001L99.7705 140.001L100.104 140.371ZM123.038 137.523L123.522 137.642L123.618 137.258L123.27 137.078L123.038 137.523ZM120.805 146.475L120.484 146.861L121.095 147.371L121.289 146.593L120.805 146.475ZM118.341 145.013L118.124 145.466L118.132 145.47L118.341 145.013ZM114.725 143.986L114.648 144.482L114.656 144.483L114.725 143.986ZM106.538 147.183L106.102 146.943L106.102 146.943L106.538 147.183ZM107.907 155.078L107.565 155.445L107.57 155.45L107.576 155.455L107.907 155.078ZM111.161 157.062L110.971 157.527L110.976 157.529L111.161 157.062ZM116.161 158.697L116.021 159.179L116.024 159.18L116.161 158.697ZM124.816 161.511L124.624 161.975L124.624 161.975L124.816 161.511ZM130.385 165.324L130.028 165.677L130.033 165.683L130.385 165.324ZM134.161 180.711L133.681 180.578L133.681 180.578L134.161 180.711ZM129.828 187.407L130.149 187.788L130.152 187.786L129.828 187.407ZM121.429 191.043C119.103 191.672 116.836 191.99 114.626 192L114.623 193.002C116.926 192.992 119.279 192.661 121.682 192.011L121.429 191.043ZM114.628 192C112.431 192.004 110.454 191.776 108.692 191.323L108.438 192.294C110.294 192.771 112.357 193.006 114.622 193.002L114.628 192ZM108.692 191.323C106.915 190.866 105.476 190.289 104.363 189.602L103.836 190.457C105.058 191.211 106.597 191.82 108.438 192.294L108.692 191.323ZM104.588 190.123L106.38 181.046L105.402 180.858L103.61 189.935L104.588 190.123ZM105.585 181.35C106.422 181.997 107.574 182.592 109.019 183.144L109.38 182.207C107.982 181.673 106.929 181.119 106.197 180.554L105.585 181.35ZM109.019 183.144C110.482 183.703 112.076 184.083 113.797 184.286L113.92 183.291C112.271 183.096 110.759 182.734 109.38 182.207L109.019 183.144ZM113.799 184.287C115.566 184.485 117.247 184.372 118.838 183.942L118.585 182.974C117.126 183.369 115.572 183.476 113.918 183.291L113.799 184.287ZM118.838 183.942C120.939 183.373 122.579 182.314 123.718 180.747L122.913 180.16C121.93 181.512 120.501 182.456 118.585 182.974L118.838 183.942ZM123.718 180.746C124.899 179.114 125.187 177.201 124.629 175.065L123.664 175.326C124.157 177.215 123.891 178.808 122.913 180.161L123.718 180.746ZM124.629 175.065C124.268 173.683 123.61 172.556 122.643 171.711L121.985 172.469C122.782 173.166 123.346 174.109 123.664 175.326L124.629 175.065ZM122.655 171.722C121.739 170.869 120.631 170.207 119.342 169.73L118.991 170.671C120.172 171.107 121.164 171.705 121.974 172.459L122.655 171.722ZM119.355 169.735C118.115 169.236 116.251 168.625 113.772 167.902L113.487 168.865C115.958 169.585 117.785 170.186 118.978 170.666L119.355 169.735ZM113.773 167.902C110.39 166.912 107.724 166.02 105.767 165.227L105.388 166.157C107.389 166.967 110.09 167.87 113.487 168.865L113.773 167.902ZM105.772 165.229C103.852 164.429 102.034 163.199 100.32 161.529L99.6221 162.25C101.413 163.996 103.334 165.301 105.384 166.155L105.772 165.229ZM100.325 161.534C98.6651 159.868 97.4556 157.629 96.7141 154.791L95.7488 155.052C96.5252 158.024 97.8087 160.43 99.6169 162.245L100.325 161.534ZM96.7141 154.791C95.9934 152.033 95.9445 149.462 96.5497 147.066L95.5826 146.827C94.9301 149.409 94.9914 152.154 95.7488 155.052L96.7141 154.791ZM96.5492 147.068C97.1707 144.649 98.4615 142.542 100.438 140.741L99.7705 140.001C97.658 141.926 96.2568 144.202 95.5831 146.825L96.5492 147.068ZM100.438 140.741C102.41 138.945 105.02 137.596 108.292 136.711L108.04 135.743C104.651 136.659 101.887 138.073 99.7705 140.001L100.438 140.741ZM108.292 136.711C113.6 135.275 118.428 135.703 122.807 137.969L123.27 137.078C118.647 134.686 113.561 134.25 108.04 135.743L108.292 136.711ZM122.554 137.405L120.321 146.356L121.289 146.593L123.522 137.642L122.554 137.405ZM121.126 146.089C120.488 145.555 119.623 145.047 118.55 144.557L118.132 145.47C119.16 145.939 119.939 146.405 120.484 146.861L121.126 146.089ZM118.558 144.561C117.447 144.03 116.191 143.675 114.794 143.49L114.656 144.483C115.966 144.657 117.12 144.987 118.124 145.466L118.558 144.561ZM114.803 143.491C113.374 143.276 111.951 143.36 110.538 143.742L110.791 144.709C112.072 144.363 113.356 144.287 114.648 144.482L114.803 143.491ZM110.538 143.742C108.482 144.298 106.977 145.353 106.102 146.943L106.975 147.423C107.687 146.128 108.932 145.212 110.791 144.709L110.538 143.742ZM106.102 146.943C105.258 148.478 105.088 150.171 105.563 151.989L106.528 151.728C106.111 150.131 106.269 148.707 106.975 147.423L106.102 146.943ZM105.563 151.989C105.924 153.371 106.59 154.529 107.565 155.445L108.25 154.711C107.421 153.933 106.846 152.944 106.528 151.728L105.563 151.989ZM107.576 155.455C108.542 156.31 109.675 157 110.971 157.527L111.351 156.598C110.149 156.109 109.114 155.476 108.239 154.701L107.576 155.455ZM110.976 157.529C112.271 158.038 113.954 158.588 116.021 159.179L116.301 158.215C114.249 157.628 112.599 157.088 111.346 156.595L110.976 157.529ZM116.024 159.18C119.745 160.216 122.608 161.148 124.624 161.975L125.008 161.047C122.939 160.198 120.032 159.254 116.297 158.214L116.024 159.18ZM124.624 161.975C126.6 162.787 128.401 164.018 130.028 165.677L130.742 164.972C129.029 163.224 127.117 161.914 125.008 161.047L124.624 161.975ZM130.033 165.683C131.644 167.277 132.831 169.478 133.574 172.318L134.539 172.057C133.763 169.088 132.503 166.714 130.736 164.966L130.033 165.683ZM133.574 172.318C134.361 175.33 134.388 178.079 133.681 180.578L134.641 180.845C135.405 178.144 135.363 175.21 134.539 172.057L133.574 172.318ZM133.681 180.578C132.973 183.077 131.586 185.225 129.503 187.029L130.152 187.786C132.375 185.86 133.876 183.545 134.641 180.845L133.681 180.578ZM129.507 187.026C127.415 188.807 124.729 190.151 121.429 191.043L121.682 192.011C125.093 191.088 127.921 189.685 130.149 187.788L129.507 187.026ZM155.883 178.723L155.716 179.196L155.719 179.197L155.883 178.723ZM145.827 171.173L145.428 171.477L145.429 171.478L145.827 171.173ZM138.169 142.024L137.674 141.96L137.674 141.962L138.169 142.024ZM143.136 130.41L143.512 130.736L143.513 130.735L143.136 130.41ZM167.396 123.889L167.227 124.361L167.23 124.362L167.396 123.889ZM177.376 131.459L176.975 131.761L176.977 131.763L177.376 131.459ZM184.91 160.601L184.416 160.535L184.415 160.537L184.91 160.601ZM179.905 172.225L180.28 172.553L180.282 172.551L179.905 172.225ZM172.205 166.82L171.805 166.525L171.803 166.527L172.205 166.82ZM166.517 134.274L166.179 134.644L166.182 134.647L166.517 134.274ZM148.901 139.039L148.425 138.894L148.425 138.895L148.901 139.039ZM153.921 164.81L153.502 165.085L153.505 165.09L153.921 164.81ZM159.785 170.22L159.578 170.678L159.585 170.681L159.785 170.22ZM168.723 178.333C164.073 179.591 159.854 179.552 156.047 178.249L155.719 179.197C159.744 180.576 164.169 180.6 168.975 179.3L168.723 178.333ZM156.05 178.249C152.229 176.918 148.954 174.465 146.224 170.867L145.429 171.478C148.263 175.214 151.692 177.794 155.716 179.196L156.05 178.249ZM146.225 170.868C143.484 167.239 141.382 162.653 139.93 157.096L138.965 157.357C140.442 163.01 142.592 167.722 145.428 171.477L146.225 170.868ZM139.93 157.096C138.491 151.59 138.075 146.588 138.664 142.085L137.674 141.962C137.065 146.621 137.501 151.755 138.965 157.357L139.93 157.096ZM138.663 142.087C139.27 137.557 140.891 133.781 143.512 130.736L142.759 130.084C139.994 133.296 138.304 137.263 137.674 141.96L138.663 142.087ZM143.513 130.735C146.148 127.663 149.749 125.497 154.346 124.254L154.093 123.286C149.335 124.573 145.547 126.834 142.759 130.084L143.513 130.735ZM154.346 124.254C159.124 122.961 163.411 123.009 167.227 124.361L167.565 123.416C163.523 121.984 159.026 121.952 154.093 123.286L154.346 124.254ZM167.23 124.362C171.049 125.693 174.297 128.151 176.975 131.761L177.777 131.158C174.993 127.407 171.588 124.818 167.563 123.415L167.23 124.362ZM176.977 131.763C179.686 135.374 181.763 139.913 183.195 145.393L184.16 145.132C182.703 139.556 180.579 134.892 177.776 131.156L176.977 131.763ZM183.195 145.393C184.647 150.95 185.048 155.995 184.416 160.535L185.404 160.667C186.058 155.967 185.638 150.786 184.16 145.132L183.195 145.393ZM184.415 160.537C183.802 165.04 182.169 168.821 179.528 171.9L180.282 172.551C183.064 169.307 184.768 165.339 185.404 160.665L184.415 160.537ZM179.53 171.898C176.887 174.946 173.294 177.096 168.723 178.333L168.975 179.3C173.707 178.02 177.485 175.776 180.28 172.553L179.53 171.898ZM166.838 171.122C169.213 170.48 171.142 169.138 172.608 167.113L171.803 166.527C170.469 168.369 168.735 169.573 166.585 170.154L166.838 171.122ZM172.606 167.116C174.103 165.078 174.97 162.39 175.245 159.092L174.251 159.015C173.986 162.191 173.158 164.681 171.805 166.525L172.606 167.116ZM175.245 159.092C175.521 155.781 175.086 151.963 173.958 147.646L172.993 147.908C174.102 152.152 174.515 155.851 174.251 159.015L175.245 159.092ZM173.958 147.646C172.302 141.311 169.95 136.703 166.853 133.9L166.182 134.647C169.073 137.263 171.359 141.657 172.993 147.908L173.958 147.646ZM166.856 133.904C163.759 131.05 160.178 130.151 156.17 131.235L156.423 132.203C160.093 131.21 163.325 132.015 166.179 134.644L166.856 133.904ZM156.17 131.235C152.259 132.293 149.667 134.867 148.425 138.894L149.378 139.184C150.523 135.472 152.861 133.166 156.423 132.203L156.17 131.235ZM148.425 138.895C147.21 142.861 147.476 148.058 149.143 154.44L150.109 154.179C148.461 147.873 148.243 142.89 149.378 139.183L148.425 138.895ZM149.143 154.44C150.284 158.804 151.733 162.358 153.503 165.085L154.34 164.534C152.646 161.924 151.232 158.478 150.109 154.179L149.143 154.44ZM153.505 165.09C155.291 167.778 157.31 169.658 159.578 170.678L159.992 169.763C157.942 168.841 156.052 167.113 154.337 164.529L153.505 165.09ZM159.585 170.681C161.872 171.667 164.297 171.809 166.838 171.122L166.585 170.154C164.246 170.787 162.053 170.651 159.985 169.76L159.585 170.681ZM69.6072 309.713L69.6002 309.212L69.5958 309.212L69.6072 309.713ZM64.7829 309.217L64.288 309.157L64.2381 309.549L64.6052 309.687L64.7829 309.217ZM66.0665 299.132L66.3957 298.753L65.6907 298.136L65.5716 299.072L66.0665 299.132ZM69.0961 300.726L68.969 301.212L68.9763 301.214L68.9836 301.215L69.0961 300.726ZM75.4773 299.369L75.7536 299.784L75.7639 299.777L75.4773 299.369ZM77.1578 296.582L77.642 296.699L77.6431 296.694L77.1578 296.582ZM66.7581 253.035L66.6317 252.551L66.149 252.681L66.2754 253.165L66.7581 253.035ZM76.6718 250.353L77.1545 250.223L77.0281 249.739L76.5454 249.869L76.6718 250.353ZM85.9858 301.15L86.4414 301.351L86.4422 301.349L85.9858 301.15ZM74.9043 308.58C73.5338 308.951 71.7697 309.165 69.6002 309.212L69.6143 310.214C71.8291 310.166 73.6807 309.947 75.1572 309.548L74.9043 308.58ZM69.5958 309.212C67.4522 309.277 65.9236 309.109 64.9606 308.748L64.6052 309.687C65.7544 310.118 67.442 310.28 69.6187 310.214L69.5958 309.212ZM65.2778 309.277L66.5614 299.192L65.5716 299.072L64.288 309.157L65.2778 309.277ZM65.7374 299.511C66.6775 300.332 67.7566 300.9 68.969 301.212L69.2231 300.241C68.1598 299.968 67.2192 299.472 66.3957 298.753L65.7374 299.511ZM68.9836 301.215C70.2086 301.491 71.378 301.486 72.4826 301.188L72.2297 300.22C71.3007 300.471 70.2967 300.482 69.2085 300.237L68.9836 301.215ZM72.4826 301.188C73.7894 300.834 74.8849 300.37 75.7535 299.784L75.2012 298.953C74.4502 299.46 73.4649 299.886 72.2297 300.22L72.4826 301.188ZM75.7639 299.777C76.695 299.114 77.3059 298.062 77.642 296.699L76.6735 296.465C76.3753 297.674 75.866 298.48 75.1908 298.961L75.7639 299.777ZM77.6431 296.694C77.9817 295.264 77.8209 293.392 77.2273 291.121L76.262 291.382C76.8402 293.595 76.9548 295.277 76.6724 296.469L77.6431 296.694ZM77.2273 291.121L67.2407 252.904L66.2754 253.165L76.262 291.382L77.2273 291.121ZM66.8845 253.518L76.7982 250.837L76.5454 249.869L66.6317 252.551L66.8845 253.518ZM76.1892 250.484L85.9361 287.783L86.9014 287.522L77.1545 250.223L76.1892 250.484ZM85.9361 287.783C87.2814 292.931 87.1247 297.309 85.5293 300.951L86.4422 301.349C88.1538 297.441 88.2857 292.82 86.9014 287.522L85.9361 287.783ZM85.5301 300.949C83.9549 304.507 80.467 307.076 74.9043 308.58L75.1572 309.548C80.8809 308 84.6963 305.292 86.4414 301.351L85.5301 300.949ZM132.444 283.06L132.927 282.929L132.8 282.445L132.318 282.576L132.444 283.06ZM134.701 291.697L134.827 292.18L135.31 292.05L135.184 291.566L134.701 291.697ZM105.417 299.618L104.935 299.748L105.061 300.232L105.544 300.101L105.417 299.618ZM91.496 246.343L91.3696 245.86L90.8869 245.99L91.0133 246.474L91.496 246.343ZM119.254 238.835L119.737 238.705L119.611 238.221L119.128 238.351L119.254 238.835ZM121.432 247.166L121.558 247.65L122.041 247.52L121.914 247.036L121.432 247.166ZM103.205 252.096L103.079 251.613L102.596 251.743L102.723 252.227L103.205 252.096ZM106.461 264.555L105.978 264.685L106.105 265.169L106.588 265.039L106.461 264.555ZM120.95 260.636L121.433 260.505L121.307 260.021L120.824 260.152L120.95 260.636ZM123.068 268.738L123.194 269.221L123.677 269.091L123.55 268.607L123.068 268.738ZM108.578 272.657L108.452 272.173L107.969 272.304L108.096 272.787L108.578 272.657ZM112.693 288.402L112.21 288.533L112.337 289.016L112.819 288.886L112.693 288.402ZM131.961 283.19L134.218 291.827L135.184 291.566L132.927 282.929L131.961 283.19ZM134.575 291.213L105.291 299.134L105.544 300.101L134.827 292.18L134.575 291.213ZM105.9 299.487L91.9786 246.213L91.0133 246.474L104.935 299.748L105.9 299.487ZM91.6224 246.827L119.381 239.319L119.128 238.351L91.3696 245.86L91.6224 246.827ZM118.772 238.966L120.949 247.297L121.914 247.036L119.737 238.705L118.772 238.966ZM121.305 246.683L103.079 251.613L103.332 252.58L121.558 247.65L121.305 246.683ZM102.723 252.227L105.978 264.685L106.944 264.424L103.688 251.966L102.723 252.227ZM106.588 265.039L121.077 261.12L120.824 260.152L106.335 264.071L106.588 265.039ZM120.468 260.766L122.585 268.868L123.55 268.607L121.433 260.505L120.468 260.766ZM122.941 268.254L108.452 272.173L108.705 273.141L123.194 269.221L122.941 268.254ZM108.096 272.787L112.21 288.533L113.175 288.272L109.061 272.526L108.096 272.787ZM112.819 288.886L132.57 283.544L132.318 282.576L112.566 287.918L112.819 288.886ZM153.307 284.045L153.14 284.519L153.142 284.52L153.307 284.045ZM143.25 276.495L142.852 276.8L142.853 276.801L143.25 276.495ZM135.592 247.346L135.098 247.283L135.098 247.284L135.592 247.346ZM140.559 235.732L140.936 236.058L140.936 236.058L140.559 235.732ZM164.82 229.211L164.651 229.684L164.653 229.685L164.82 229.211ZM174.8 236.782L174.399 237.083L174.401 237.085L174.8 236.782ZM182.333 265.924L181.839 265.858L181.839 265.86L182.333 265.924ZM177.328 277.548L177.704 277.875L177.705 277.873L177.328 277.548ZM169.629 272.143L169.228 271.847L169.226 271.85L169.629 272.143ZM163.941 239.596L163.602 239.967L163.606 239.97L163.941 239.596ZM146.325 244.361L145.849 244.216L145.848 244.217L146.325 244.361ZM151.345 270.132L150.926 270.408L150.929 270.412L151.345 270.132ZM157.209 275.543L157.002 276.001L157.009 276.004L157.209 275.543ZM166.146 283.655C161.496 284.913 157.277 284.875 153.471 283.571L153.142 284.52C157.168 285.899 161.593 285.923 166.399 284.623L166.146 283.655ZM153.473 283.572C149.652 282.241 146.377 279.787 143.648 276.19L142.853 276.801C145.687 280.536 149.116 283.117 153.14 284.519L153.473 283.572ZM143.649 276.19C140.908 272.561 138.806 267.976 137.353 262.419L136.388 262.68C137.865 268.333 140.016 273.045 142.852 276.8L143.649 276.19ZM137.353 262.419C135.914 256.912 135.498 251.911 136.087 247.408L135.098 247.284C134.488 251.944 134.924 257.078 136.388 262.68L137.353 262.419ZM136.087 247.409C136.694 242.88 138.314 239.104 140.936 236.058L140.183 235.406C137.418 238.619 135.727 242.585 135.098 247.283L136.087 247.409ZM140.936 236.058C143.572 232.985 147.173 230.82 151.77 229.576L151.517 228.609C146.759 229.896 142.971 232.156 140.182 235.407L140.936 236.058ZM151.77 229.576C156.547 228.284 160.834 228.331 164.651 229.684L164.989 228.738C160.947 227.306 156.449 227.275 151.517 228.609L151.77 229.576ZM164.653 229.685C168.473 231.015 171.721 233.474 174.399 237.083L175.201 236.481C172.417 232.729 169.012 230.14 164.986 228.738L164.653 229.685ZM174.401 237.085C177.11 240.697 179.186 245.235 180.619 250.716L181.584 250.455C180.127 244.878 178.002 240.215 175.199 236.479L174.401 237.085ZM180.619 250.716C182.071 256.272 182.471 261.317 181.839 265.858L182.827 265.99C183.482 261.289 183.061 256.109 181.584 250.455L180.619 250.716ZM181.839 265.86C181.226 270.362 179.593 274.143 176.951 277.223L177.705 277.873C180.488 274.63 182.192 270.661 182.828 265.988L181.839 265.86ZM176.953 277.221C174.311 280.269 170.718 282.419 166.146 283.655L166.399 284.623C171.131 283.343 174.909 281.099 177.704 277.875L176.953 277.221ZM164.262 276.445C166.637 275.802 168.565 274.461 170.032 272.435L169.226 271.85C167.893 273.691 166.159 274.896 164.009 275.477L164.262 276.445ZM170.03 272.438C171.526 270.4 172.394 267.713 172.669 264.414L171.675 264.338C171.41 267.514 170.582 270.004 169.228 271.847L170.03 272.438ZM172.669 264.414C172.945 261.103 172.509 257.285 171.382 252.969L170.416 253.23C171.525 257.474 171.938 261.174 171.675 264.338L172.669 264.414ZM171.382 252.969C169.726 246.634 167.373 242.025 164.276 239.223L163.606 239.97C166.497 242.586 168.783 246.979 170.416 253.23L171.382 252.969ZM164.28 239.226C161.183 236.372 157.601 235.474 153.594 236.558L153.847 237.525C157.516 236.533 160.749 237.338 163.602 239.967L164.28 239.226ZM153.594 236.558C149.682 237.616 147.091 240.19 145.849 244.216L146.802 244.506C147.947 240.794 150.285 238.489 153.847 237.525L153.594 236.558ZM145.848 244.217C144.634 248.184 144.899 253.381 146.567 259.763L147.532 259.502C145.884 253.196 145.667 248.212 146.802 244.505L145.848 244.217ZM146.567 259.763C147.707 264.126 149.156 267.681 150.926 270.408L151.763 269.856C150.07 267.246 148.656 263.8 147.532 259.502L146.567 259.763ZM150.929 270.412C152.714 273.101 154.734 274.981 157.002 276.001L157.415 275.085C155.365 274.163 153.476 272.436 151.76 269.852L150.929 270.412ZM157.009 276.004C159.296 276.989 161.72 277.132 164.262 276.445L164.009 275.477C161.67 276.11 159.477 275.974 157.408 275.082L157.009 276.004ZM224.192 210.451L224.675 210.321L224.549 209.837L224.066 209.967L224.192 210.451ZM238.393 264.795L238.52 265.279L239.002 265.148L238.876 264.665L238.393 264.795ZM237.631 265.002L237.351 265.419L237.538 265.544L237.757 265.485L237.631 265.002ZM204.55 242.77L204.246 243.169L204.258 243.178L204.271 243.187L204.55 242.77ZM201.387 240.352L201.691 239.952L200.43 238.988L200.912 240.507L201.387 240.352ZM203.706 247.663L204.189 247.532L204.185 247.52L204.181 247.508L203.706 247.663ZM209.898 271.357L210.024 271.841L210.507 271.71L210.38 271.227L209.898 271.357ZM200.518 273.894L200.035 274.025L200.162 274.509L200.644 274.378L200.518 273.894ZM186.357 219.703L186.23 219.219L185.748 219.35L185.874 219.834L186.357 219.703ZM187.196 219.476L187.48 219.062L187.291 218.932L187.069 218.992L187.196 219.476ZM219.955 242.04L220.26 241.642L220.25 241.634L220.239 241.626L219.955 242.04ZM223.533 244.796L223.227 245.194L224.495 246.171L224.008 244.64L223.533 244.796ZM221.244 237.6L220.761 237.73L220.765 237.743L220.768 237.755L221.244 237.6ZM214.812 212.988L214.686 212.504L214.203 212.635L214.33 213.119L214.812 212.988ZM223.71 210.582L237.911 264.926L238.876 264.665L224.675 210.321L223.71 210.582ZM238.267 264.311L237.504 264.518L237.757 265.485L238.52 265.279L238.267 264.311ZM237.91 264.584L204.83 242.353L204.271 243.187L237.351 265.419L237.91 264.584ZM204.854 242.37L201.691 239.952L201.083 240.751L204.246 243.169L204.854 242.37ZM200.912 240.507L203.23 247.818L204.181 247.508L201.863 240.197L200.912 240.507ZM203.223 247.793L209.415 271.488L210.38 271.227L204.189 247.532L203.223 247.793ZM209.771 270.873L200.391 273.411L200.644 274.378L210.024 271.841L209.771 270.873ZM201 273.764L186.839 219.572L185.874 219.834L200.035 274.025L201 273.764ZM186.483 220.187L187.322 219.96L187.069 218.992L186.23 219.219L186.483 220.187ZM186.911 219.89L219.67 242.454L220.239 241.626L187.48 219.062L186.911 219.89ZM219.649 242.439L223.227 245.194L223.838 244.398L220.26 241.642L219.649 242.439ZM224.008 244.64L221.719 237.444L220.768 237.755L223.057 244.952L224.008 244.64ZM221.727 237.469L215.295 212.858L214.33 213.119L220.761 237.73L221.727 237.469ZM214.939 213.472L224.319 210.935L224.066 209.967L214.686 212.504L214.939 213.472ZM285.103 220.409L285.571 220.232L285.415 219.806L284.977 219.925L285.103 220.409ZM287.349 245.252L287.815 245.428L287.815 245.428L287.349 245.252ZM260.663 255.457L260.498 255.931L260.5 255.932L260.663 255.457ZM250.166 247.781L249.776 248.096L249.778 248.099L250.166 247.781ZM242.668 218.466L242.179 218.37L242.179 218.37L242.668 218.466ZM248.512 206.614L248.879 206.951L248.88 206.95L248.512 206.614ZM267.697 198.479L267.708 198.98L267.71 198.98L267.697 198.479ZM276.524 200.388L277.013 200.486L277.086 200.128L276.77 199.95L276.524 200.388ZM274.547 210.007L274.238 210.402L274.872 210.9L275.035 210.104L274.547 210.007ZM256.002 212.936L256.388 213.25L256.388 213.25L256.002 212.936ZM252.807 220.551L252.314 220.479L252.314 220.479L252.807 220.551ZM257.793 240.726L257.373 240.999L257.376 241.003L257.793 240.726ZM263.881 246.526L263.659 246.976L263.665 246.979L263.881 246.526ZM278.51 242.201L278.072 241.964L278.07 241.967L278.51 242.201ZM278.302 231.25L278.777 231.094L278.633 230.643L278.175 230.767L278.302 231.25ZM267.397 234.2L266.914 234.331L267.04 234.814L267.523 234.684L267.397 234.2ZM265.199 225.792L265.073 225.309L264.59 225.439L264.717 225.923L265.199 225.792ZM284.635 220.585C285.764 223.656 286.556 226.069 287.016 227.829L287.981 227.568C287.509 225.762 286.704 223.314 285.571 220.232L284.635 220.585ZM287.016 227.829C288.769 234.539 288.706 240.278 286.883 245.077L287.815 245.428C289.733 240.376 289.769 234.413 287.981 227.568L287.016 227.829ZM286.883 245.077C285.096 249.784 280.507 253.213 272.903 255.27L273.155 256.238C280.904 254.142 285.863 250.57 287.815 245.428L286.883 245.077ZM272.903 255.27C268.723 256.401 264.702 256.302 260.826 254.983L260.5 255.932C264.571 257.318 268.794 257.418 273.155 256.238L272.903 255.27ZM260.828 254.983C256.981 253.658 253.555 251.16 250.553 247.462L249.778 248.099C252.877 251.917 256.45 254.537 260.498 255.931L260.828 254.983ZM250.555 247.465C247.577 243.741 245.318 238.971 243.794 233.137L242.829 233.398C244.38 239.335 246.691 244.24 249.776 248.096L250.555 247.465ZM243.794 233.137C242.446 227.977 242.238 223.121 243.157 218.561L242.179 218.37C241.226 223.1 241.447 228.112 242.829 233.398L243.794 233.137ZM243.157 218.561C244.077 213.999 245.986 210.133 248.879 206.951L248.145 206.278C245.119 209.607 243.132 213.642 242.179 218.37L243.157 218.561ZM248.88 206.95C251.789 203.739 255.467 201.528 259.931 200.32L259.678 199.353C255.042 200.607 251.192 202.914 248.144 206.279L248.88 206.95ZM259.931 200.32C263.011 199.487 265.601 199.044 267.708 198.98L267.685 197.978C265.473 198.046 262.801 198.508 259.678 199.353L259.931 200.32ZM267.71 198.98C269.872 198.908 271.554 199.052 272.776 199.393L273.049 198.427C271.688 198.048 269.893 197.905 267.684 197.978L267.71 198.98ZM272.776 199.393C274.031 199.742 275.198 200.221 276.278 200.826L276.77 199.95C275.618 199.304 274.377 198.797 273.049 198.427L272.776 199.393ZM276.035 200.29L274.058 209.909L275.035 210.104L277.013 200.486L276.035 200.29ZM274.856 209.611C271.837 207.241 267.571 206.874 262.188 208.331L262.441 209.298C267.683 207.88 271.571 208.309 274.238 210.402L274.856 209.611ZM262.188 208.331C259.543 209.046 257.348 210.479 255.616 212.622L256.388 213.25C257.988 211.272 260.001 209.958 262.441 209.298L262.188 208.331ZM255.616 212.622C253.885 214.761 252.789 217.387 252.314 220.479L253.3 220.624C253.752 217.682 254.787 215.23 256.388 213.25L255.616 212.622ZM252.314 220.479C251.838 223.574 252.068 226.885 252.987 230.405L253.953 230.144C253.062 226.733 252.849 223.562 253.3 220.624L252.314 220.479ZM252.987 230.405C254.089 234.62 255.548 238.155 257.373 240.999L258.213 240.452C256.458 237.718 255.035 234.286 253.953 230.144L252.987 230.405ZM257.376 241.003C259.219 243.812 261.309 245.817 263.659 246.976L264.104 246.076C261.954 245.015 259.986 243.153 258.211 240.448L257.376 241.003ZM263.665 246.979C266.041 248.108 268.516 248.327 271.071 247.636L270.818 246.669C268.492 247.298 266.259 247.1 264.097 246.073L263.665 246.979ZM271.071 247.636C274.97 246.582 277.65 244.875 278.949 242.435L278.07 241.967C276.96 244.052 274.596 245.647 270.818 246.669L271.071 247.636ZM278.947 242.438C280.263 240.012 280.376 236.897 279.4 233.163L278.435 233.424C279.376 237.027 279.218 239.851 278.072 241.964L278.947 242.438ZM279.4 233.163C279.29 232.741 279.081 232.049 278.777 231.094L277.826 231.406C278.13 232.36 278.332 233.03 278.435 233.424L279.4 233.163ZM278.175 230.767L267.27 233.716L267.523 234.684L278.428 231.734L278.175 230.767ZM267.879 234.069L265.682 225.662L264.717 225.923L266.914 234.331L267.879 234.069ZM265.326 226.276L285.23 220.892L284.977 219.925L265.073 225.309L265.326 226.276Z" fill="black"/>
</svg>
