<svg width="143" height="53" viewBox="0 0 143 53" fill="none" xmlns="http://www.w3.org/2000/svg">
<path d="M0.44 0.719999H13.7V31.44H34.88V42H0.44V0.719999ZM60.1995 -2.86102e-06C65.4795 -2.86102e-06 69.8195 1.08 73.2195 3.24C76.6195 5.36 78.3595 8.52 78.4395 12.72V13.44H66.0195V13.2C66.0195 12 65.5795 11 64.6995 10.2C63.8195 9.4 62.4795 9 60.6795 9C58.9195 9 57.5595 9.26 56.5995 9.78C55.6795 10.3 55.2195 10.94 55.2195 11.7C55.2195 12.78 55.8595 13.58 57.1395 14.1C58.4195 14.62 60.4795 15.16 63.3195 15.72C66.6395 16.4 69.3595 17.12 71.4795 17.88C73.6395 18.6 75.5195 19.8 77.1195 21.48C78.7195 23.16 79.5395 25.44 79.5795 28.32C79.5795 33.2 77.9195 36.82 74.5995 39.18C71.3195 41.54 66.9195 42.72 61.3995 42.72C54.9595 42.72 49.9395 41.64 46.3395 39.48C42.7795 37.32 40.9995 33.5 40.9995 28.02H53.5395C53.5395 30.1 54.0795 31.5 55.1595 32.22C56.2395 32.9 57.9195 33.24 60.1995 33.24C61.8795 33.24 63.2595 33.06 64.3395 32.7C65.4595 32.34 66.0195 31.6 66.0195 30.48C66.0195 29.48 65.3995 28.74 64.1595 28.26C62.9595 27.74 60.9795 27.2 58.2195 26.64C54.8595 25.92 52.0795 25.18 49.8795 24.42C47.6795 23.62 45.7595 22.32 44.1195 20.52C42.4795 18.72 41.6595 16.28 41.6595 13.2C41.6595 8.68 43.3995 5.36 46.8795 3.24C50.3995 1.08 54.8395 -2.86102e-06 60.1995 -2.86102e-06ZM119.7 27.66C119.7 32.82 118.22 36.62 115.26 39.06C112.34 41.5 108.12 42.72 102.6 42.72C97.0803 42.72 92.8403 41.5 89.8803 39.06C86.9603 36.62 85.5003 32.82 85.5003 27.66V27.12H97.9203V27.6C97.9203 29.48 98.2603 30.82 98.9403 31.62C99.6603 32.42 100.74 32.82 102.18 32.82C103.62 32.82 104.68 32.42 105.36 31.62C106.08 30.82 106.44 29.48 106.44 27.6V0.719999H119.7V27.66ZM130.2 22.32V10.32H142.92V22.32H130.2ZM136.62 52.98H130.14L135.06 42H130.2V30.06H142.92V41.34L136.62 52.98Z" fill="white"/>
</svg>
