<svg width="263" height="66" viewBox="0 0 263 66" fill="none" xmlns="http://www.w3.org/2000/svg">
<path d="M261.989 32.199C262.055 36.3544 258.681 40.4771 252.136 44.3473C245.627 48.1965 236.143 51.6974 224.358 54.6623C200.795 60.5902 168.146 64.3486 132.003 64.5222C95.859 64.6958 63.0966 61.2514 39.3492 55.5507C27.4717 52.6994 17.8775 49.2902 11.2476 45.5041C4.58135 41.6973 1.07652 37.6076 1.01061 33.4522C0.944711 29.2968 4.3193 25.1741 10.8638 21.3039C17.3726 17.4547 26.8572 13.9538 38.6425 10.9889C62.2054 5.06098 94.8537 1.30254 130.997 1.12897C167.141 0.955408 199.903 4.39975 223.651 10.1005C235.528 12.9518 245.122 16.361 251.752 20.1471C258.419 23.9539 261.924 28.0436 261.989 32.199Z" stroke="white"/>
<path d="M76.058 41.4511C77.7999 41.4314 79.1012 41.0266 79.962 40.2369C80.8479 39.421 81.2724 38.3892 81.2353 37.1418C81.2036 36.0763 80.8263 35.1966 80.1035 34.5029C79.4067 33.8089 78.3111 33.2624 76.8169 32.8634L73.3939 31.8884C72.292 31.563 71.3303 31.1449 70.5089 30.6343C69.6867 30.0977 69.043 29.4421 68.5779 28.6674C68.1379 27.8665 67.9021 26.9333 67.8704 25.8678C67.8109 23.8666 68.4925 22.2991 69.9151 21.165C71.337 20.005 73.2569 19.4113 75.6748 19.3838C77.0787 19.3679 78.3312 19.5096 79.4324 19.8091C80.5589 20.0823 81.441 20.4492 82.0789 20.9099C82.7428 21.3703 83.0824 21.8604 83.0979 22.3802C83.1079 22.718 83.0262 23.0309 82.8527 23.3189C82.6785 23.5808 82.4507 23.7914 82.1693 23.9506C81.5039 23.4382 80.6064 22.9934 79.4769 22.6163C78.3734 22.2389 77.1717 22.0575 75.8718 22.0723C74.3639 22.0894 73.178 22.4408 72.3141 23.1266C71.4495 23.7863 71.0342 24.688 71.0682 25.8314C71.0953 26.741 71.4293 27.4782 72.0702 28.0428C72.7372 28.6072 73.7918 29.0892 75.2341 29.4888L77.6338 30.1634C79.7047 30.7119 81.3413 31.5252 82.5437 32.6034C83.7721 33.6814 84.4149 35.1819 84.4721 37.105C84.5331 39.1581 83.8286 40.83 82.3586 42.1205C80.9146 43.4108 78.8407 44.0713 76.1368 44.102C74.5509 44.12 73.155 43.9669 71.949 43.6426C70.7683 43.292 69.8322 42.8607 69.1408 42.3486C68.4746 41.8102 68.1338 41.2812 68.1183 40.7614C68.1052 40.3196 68.2243 39.9543 68.4758 39.6654C68.7525 39.3503 69.0709 39.1257 69.4311 38.9917C70.046 39.5566 70.908 40.1188 72.0169 40.6781C73.1251 41.2115 74.4721 41.4692 76.058 41.4511ZM93.6403 31.3075L96.0507 29.7203C98.8854 32.3398 101.322 34.6779 103.359 36.7346C105.423 38.7909 107.162 40.435 108.577 41.6668C108.568 42.2388 108.413 42.6956 108.111 43.037C107.808 43.3524 107.423 43.5127 106.955 43.518C106.513 43.5231 106.106 43.3977 105.734 43.1419C105.389 42.8859 105.029 42.591 104.655 42.2573L93.6403 31.3075ZM96.5585 32.3663L93.3789 31.7005L104.755 19.4045C105.432 19.4228 105.944 19.586 106.291 19.894C106.639 20.2021 106.818 20.564 106.831 20.9798C106.841 21.3176 106.76 21.6435 106.587 21.9575C106.439 22.2451 106.188 22.5469 105.834 22.8629L96.5585 32.3663ZM91.1173 29.1134L94.3151 29.0771L94.7395 43.3448C94.585 43.3985 94.3786 43.4529 94.1201 43.5078C93.8625 43.5887 93.5777 43.631 93.2657 43.6345C92.6937 43.641 92.2613 43.5289 91.9683 43.2983C91.6754 43.0676 91.5216 42.7054 91.5069 42.2116L91.1173 29.1134ZM94.3928 31.6889L91.195 31.7253L90.8402 19.7965C90.9687 19.7431 91.1621 19.6889 91.4206 19.634C91.7042 19.5527 92.002 19.5104 92.314 19.5068C92.886 19.5003 93.3184 19.6124 93.6114 19.8431C93.9035 20.0477 94.0574 20.4099 94.0728 20.9297L94.3928 31.6889ZM114.809 29.0004L117.968 28.9645L118.387 43.0373C118.258 43.0907 118.065 43.1449 117.806 43.1998C117.549 43.2807 117.264 43.323 116.952 43.3265C116.38 43.333 115.947 43.2209 115.654 42.9903C115.362 42.7596 115.208 42.3974 115.193 41.9036L114.809 29.0004ZM118.046 31.5763L114.887 31.6122L114.528 19.5275C114.656 19.4741 114.849 19.4199 115.108 19.365C115.392 19.2838 115.689 19.2414 116.001 19.2378C116.573 19.2313 116.993 19.3436 117.26 19.5745C117.552 19.7792 117.706 20.1414 117.721 20.6612L118.046 31.5763ZM126.546 29.179L129.744 29.1427L130.146 42.6697L128.673 42.9984C128.179 43.004 127.759 42.8528 127.411 42.5448C127.089 42.2105 126.921 41.7965 126.906 41.3027L126.546 29.179ZM128.673 42.9984L128.592 40.2696L141.266 40.1257C141.399 40.2282 141.508 40.3959 141.593 40.6289C141.678 40.862 141.725 41.1214 141.734 41.4073C141.747 41.8491 141.64 42.2013 141.414 42.4638C141.188 42.7263 140.88 42.8598 140.49 42.8643L128.673 42.9984ZM129.813 31.4817L126.615 31.518L126.255 19.3944C126.383 19.3409 126.577 19.2867 126.835 19.2318C127.119 19.1506 127.417 19.1082 127.729 19.1047C128.301 19.0982 128.733 19.2102 129.026 19.4409C129.318 19.6455 129.472 20.0078 129.487 20.5275L129.813 31.4817ZM147.643 28.9395L150.84 28.9032L151.243 42.4302L149.77 42.7589C149.276 42.7645 148.855 42.6133 148.508 42.3052C148.186 41.9709 148.018 41.5569 148.003 41.0631L147.643 28.9395ZM149.77 42.7589L149.689 40.0301L162.363 39.8861C162.496 39.9886 162.605 40.1564 162.69 40.3894C162.775 40.6224 162.822 40.8818 162.83 41.1677C162.843 41.6095 162.737 41.9617 162.511 42.2242C162.284 42.4868 161.976 42.6203 161.586 42.6247L149.77 42.7589ZM150.91 31.2421L147.712 31.2784L147.352 19.1548C147.48 19.1013 147.673 19.0472 147.932 18.9922C148.216 18.911 148.513 18.8686 148.825 18.8651C149.397 18.8586 149.83 18.9707 150.123 19.2013C150.415 19.406 150.569 19.7682 150.584 20.288L150.91 31.2421ZM175.639 40.3203C177.381 40.3005 178.682 39.8958 179.543 39.1061C180.429 38.2901 180.853 37.2584 180.816 36.011C180.784 34.9455 180.407 34.0658 179.684 33.3721C178.987 32.6781 177.892 32.1316 176.398 31.7326L172.975 30.7576C171.873 30.4321 170.911 30.0141 170.09 29.5035C169.267 28.9669 168.624 28.3113 168.159 27.5366C167.719 26.7357 167.483 25.8025 167.451 24.7369C167.392 22.7358 168.073 21.1682 169.496 20.0342C170.918 18.8742 172.838 18.2804 175.255 18.253C176.659 18.237 177.912 18.3788 179.013 18.6783C180.14 18.9514 181.022 19.3184 181.66 19.7791C182.323 20.2395 182.663 20.7296 182.679 21.2494C182.689 21.5872 182.607 21.9001 182.433 22.1881C182.259 22.45 182.031 22.6606 181.75 22.8197C181.085 22.3074 180.187 21.8626 179.058 21.4855C177.954 21.108 176.752 20.9267 175.452 20.9415C173.945 20.9586 172.759 21.31 171.895 21.9958C171.03 22.6555 170.615 23.5571 170.649 24.7006C170.676 25.6102 171.01 26.3474 171.651 26.912C172.318 27.4764 173.373 27.9584 174.815 28.3579L177.215 29.0326C179.285 29.581 180.922 30.3944 182.124 31.4726C183.353 32.5505 183.996 34.0511 184.053 35.9742C184.114 38.0273 183.409 39.6991 181.939 40.9897C180.495 42.28 178.421 42.9405 175.718 42.9712C174.132 42.9892 172.736 42.836 171.53 42.5118C170.349 42.1612 169.413 41.7299 168.721 41.2178C168.055 40.6794 167.714 40.1503 167.699 39.6306C167.686 39.1888 167.805 38.8235 168.057 38.5346C168.333 38.2195 168.652 37.9949 169.012 37.8608C169.627 38.4258 170.489 38.988 171.598 39.5473C172.706 40.0807 174.053 40.3383 175.639 40.3203Z" fill="white"/>
</svg>
